<svg width="20" height="20" viewBox="0 0 20 20" fill="none" xmlns="http://www.w3.org/2000/svg">
<path d="M18.1875 5.875C18.5312 7.21875 18.5312 10 18.5312 10C18.5312 10 18.5312 12.8125 18.1875 14.1562C18 14.875 17.4062 15.4375 16.6875 15.6562C15.3438 16 10 16 10 16C10 16 4.65625 16 3.34375 15.6562C2.59375 15.4375 2.03125 14.875 1.8125 14.1562C1.46875 12.8125 1.46875 10 1.46875 10C1.46875 10 1.46875 7.21875 1.8125 5.875C2.03125 5.125 2.59375 4.5625 3.34375 4.375C4.65625 4 10 4 10 4C10 4 15.3438 4 16.6562 4.375C17.4062 4.5625 18 5.125 18.1875 5.875ZM8.25 12.5625L12.7188 10L8.25 7.46875V12.5625Z" fill="#737373"/>
</svg>
