<svg width="20" height="20" viewBox="0 0 20 20" fill="none" xmlns="http://www.w3.org/2000/svg">
<g clip-path="url(#clip0_1_1734)">
<path d="M10.0007 2.5C7.82803 2.5 7.55536 2.50949 6.70197 2.54826C5.85034 2.58726 5.26902 2.72199 4.76033 2.91968C4.23421 3.12383 3.78781 3.39699 3.34315 3.84152C2.89814 4.28581 2.6248 4.73186 2.4198 5.25748C2.22145 5.76594 2.08648 6.34701 2.04814 7.19768C2.00998 8.0504 2 8.32307 2 10.4942C2 12.6652 2.00968 12.9368 2.04832 13.7895C2.0875 14.6406 2.2223 15.2215 2.41998 15.7298C2.6245 16.2555 2.89783 16.7016 3.34267 17.1459C3.78714 17.5906 4.23349 17.8644 4.75936 18.0686C5.26835 18.2663 5.84986 18.401 6.70137 18.44C7.5547 18.4788 7.82719 18.4882 9.99972 18.4882C12.1726 18.4882 12.4444 18.4788 13.2978 18.44C14.1495 18.401 14.7314 18.2663 15.2404 18.0686C15.7664 17.8644 16.2121 17.5906 16.6566 17.1459C17.1017 16.7016 17.375 16.2555 17.58 15.73C17.7767 15.2215 17.9116 14.6404 17.9517 13.7897C17.99 12.9371 18 12.6652 18 10.4942C18 8.32307 17.99 8.05058 17.9516 7.19786C17.9117 6.34683 17.7767 5.76587 17.58 5.2576C17.375 4.73186 17.1017 4.28581 16.6566 3.84152C16.2116 3.39681 15.7666 3.12371 15.24 2.91968C14.7299 2.72193 14.1482 2.58726 13.2966 2.54826C12.4432 2.50949 12.1716 2.5 9.99821 2.5H10.0007ZM9.28306 3.94057C9.49604 3.94027 9.7337 3.94057 10.0007 3.94057C12.1368 3.94057 12.3899 3.94825 13.2334 3.98653C14.0135 4.02221 14.4368 4.15241 14.7188 4.26186C15.0921 4.40676 15.3583 4.57995 15.6381 4.85976C15.9181 5.13956 16.0915 5.406 16.2368 5.77906C16.3462 6.06056 16.4768 6.48356 16.5123 7.26305C16.5506 8.10573 16.559 8.35881 16.559 10.4923C16.559 12.6257 16.5506 12.8789 16.5123 13.7216C16.4766 14.5011 16.3463 14.9241 16.2368 15.2056C16.0918 15.5786 15.9181 15.8442 15.6381 16.1238C15.3581 16.4036 15.0923 16.5768 14.7187 16.7217C14.4371 16.8317 14.0135 16.9616 13.2334 16.9972C12.3901 17.0355 12.1368 17.0438 10.0007 17.0438C7.86456 17.0438 7.61136 17.0355 6.76801 16.9972C5.98804 16.9612 5.56467 16.8309 5.2825 16.7215C4.90915 16.5767 4.64252 16.4035 4.36248 16.1237C4.08249 15.8438 3.90918 15.5781 3.7638 15.2048C3.65434 14.9234 3.52385 14.5003 3.48835 13.7209C3.45001 12.8782 3.44233 12.6251 3.44233 10.4903C3.44233 8.35555 3.45001 8.10374 3.48829 7.261C3.52397 6.48157 3.65434 6.05856 3.7638 5.77676C3.90881 5.40364 4.08249 5.1372 4.36248 4.8574C4.64246 4.57765 4.90915 4.40446 5.2825 4.2592C5.56449 4.14926 5.98804 4.01937 6.76801 3.98357C7.50602 3.95031 7.79205 3.94027 9.28306 3.93858V3.94057ZM14.2711 5.26794C13.7411 5.26794 13.3111 5.69712 13.3111 6.22692C13.3111 6.75653 13.7411 7.18619 14.2711 7.18619C14.8011 7.18619 15.2311 6.75653 15.2311 6.22692C15.2311 5.6973 14.8011 5.26794 14.2711 5.26794ZM10.0007 6.3888C7.73182 6.3888 5.89237 8.22698 5.89237 10.4942C5.89237 12.7613 7.73188 14.5986 10.0007 14.5986C12.2696 14.5986 14.1085 12.7613 14.1085 10.4942C14.1085 8.22698 12.2696 6.3888 10.0007 6.3888ZM10.0007 7.82944C11.4734 7.82944 12.6674 9.02238 12.6674 10.4942C12.6674 11.9657 11.4734 13.1589 10.0007 13.1589C8.52788 13.1589 7.33403 11.9658 7.33403 10.4942C7.33403 9.02238 8.52788 7.82944 10.0007 7.82944Z" fill="#737373"/>
<path d="M10.0007 2.5C7.82803 2.5 7.55536 2.50949 6.70197 2.54826C5.85034 2.58726 5.26902 2.72199 4.76033 2.91968C4.23421 3.12383 3.78781 3.39699 3.34315 3.84152C2.89814 4.28581 2.6248 4.73186 2.4198 5.25748C2.22145 5.76594 2.08648 6.34701 2.04814 7.19768C2.00998 8.0504 2 8.32307 2 10.4942C2 12.6652 2.00968 12.9368 2.04832 13.7895C2.0875 14.6406 2.2223 15.2215 2.41998 15.7298C2.6245 16.2555 2.89783 16.7016 3.34267 17.1459C3.78714 17.5906 4.23349 17.8644 4.75936 18.0686C5.26835 18.2663 5.84986 18.401 6.70137 18.44C7.5547 18.4788 7.82719 18.4882 9.99972 18.4882C12.1726 18.4882 12.4444 18.4788 13.2978 18.44C14.1495 18.401 14.7314 18.2663 15.2404 18.0686C15.7664 17.8644 16.2121 17.5906 16.6566 17.1459C17.1017 16.7016 17.375 16.2555 17.58 15.73C17.7767 15.2215 17.9116 14.6404 17.9517 13.7897C17.99 12.9371 18 12.6652 18 10.4942C18 8.32307 17.99 8.05058 17.9516 7.19786C17.9117 6.34683 17.7767 5.76587 17.58 5.2576C17.375 4.73186 17.1017 4.28581 16.6566 3.84152C16.2116 3.39681 15.7666 3.12371 15.24 2.91968C14.7299 2.72193 14.1482 2.58726 13.2966 2.54826C12.4432 2.50949 12.1716 2.5 9.99821 2.5H10.0007ZM9.28306 3.94057C9.49604 3.94027 9.7337 3.94057 10.0007 3.94057C12.1368 3.94057 12.3899 3.94825 13.2334 3.98653C14.0135 4.02221 14.4368 4.15241 14.7188 4.26186C15.0921 4.40676 15.3583 4.57995 15.6381 4.85976C15.9181 5.13956 16.0915 5.406 16.2368 5.77906C16.3462 6.06056 16.4768 6.48356 16.5123 7.26305C16.5506 8.10573 16.559 8.35881 16.559 10.4923C16.559 12.6257 16.5506 12.8789 16.5123 13.7216C16.4766 14.5011 16.3463 14.9241 16.2368 15.2056C16.0918 15.5786 15.9181 15.8442 15.6381 16.1238C15.3581 16.4036 15.0923 16.5768 14.7187 16.7217C14.4371 16.8317 14.0135 16.9616 13.2334 16.9972C12.3901 17.0355 12.1368 17.0438 10.0007 17.0438C7.86456 17.0438 7.61136 17.0355 6.76801 16.9972C5.98804 16.9612 5.56467 16.8309 5.2825 16.7215C4.90915 16.5767 4.64252 16.4035 4.36248 16.1237C4.08249 15.8438 3.90918 15.5781 3.7638 15.2048C3.65434 14.9234 3.52385 14.5003 3.48835 13.7209C3.45001 12.8782 3.44233 12.6251 3.44233 10.4903C3.44233 8.35555 3.45001 8.10374 3.48829 7.261C3.52397 6.48157 3.65434 6.05856 3.7638 5.77676C3.90881 5.40364 4.08249 5.1372 4.36248 4.8574C4.64246 4.57765 4.90915 4.40446 5.2825 4.2592C5.56449 4.14926 5.98804 4.01937 6.76801 3.98357C7.50602 3.95031 7.79205 3.94027 9.28306 3.93858V3.94057ZM14.2711 5.26794C13.7411 5.26794 13.3111 5.69712 13.3111 6.22692C13.3111 6.75653 13.7411 7.18619 14.2711 7.18619C14.8011 7.18619 15.2311 6.75653 15.2311 6.22692C15.2311 5.6973 14.8011 5.26794 14.2711 5.26794ZM10.0007 6.3888C7.73182 6.3888 5.89237 8.22698 5.89237 10.4942C5.89237 12.7613 7.73188 14.5986 10.0007 14.5986C12.2696 14.5986 14.1085 12.7613 14.1085 10.4942C14.1085 8.22698 12.2696 6.3888 10.0007 6.3888ZM10.0007 7.82944C11.4734 7.82944 12.6674 9.02238 12.6674 10.4942C12.6674 11.9657 11.4734 13.1589 10.0007 13.1589C8.52788 13.1589 7.33403 11.9658 7.33403 10.4942C7.33403 9.02238 8.52788 7.82944 10.0007 7.82944Z" fill="#737373"/>
<path d="M10.0007 2.5C7.82803 2.5 7.55536 2.50949 6.70197 2.54826C5.85034 2.58726 5.26902 2.72199 4.76033 2.91968C4.23421 3.12383 3.78781 3.39699 3.34315 3.84152C2.89814 4.28581 2.6248 4.73186 2.4198 5.25748C2.22145 5.76594 2.08648 6.34701 2.04814 7.19768C2.00998 8.0504 2 8.32307 2 10.4942C2 12.6652 2.00968 12.9368 2.04832 13.7895C2.0875 14.6406 2.2223 15.2215 2.41998 15.7298C2.6245 16.2555 2.89783 16.7016 3.34267 17.1459C3.78714 17.5906 4.23349 17.8644 4.75936 18.0686C5.26835 18.2663 5.84986 18.401 6.70137 18.44C7.5547 18.4788 7.82719 18.4882 9.99972 18.4882C12.1726 18.4882 12.4444 18.4788 13.2978 18.44C14.1495 18.401 14.7314 18.2663 15.2404 18.0686C15.7664 17.8644 16.2121 17.5906 16.6566 17.1459C17.1017 16.7016 17.375 16.2555 17.58 15.73C17.7767 15.2215 17.9116 14.6404 17.9517 13.7897C17.99 12.9371 18 12.6652 18 10.4942C18 8.32307 17.99 8.05058 17.9516 7.19786C17.9117 6.34683 17.7767 5.76587 17.58 5.2576C17.375 4.73186 17.1017 4.28581 16.6566 3.84152C16.2116 3.39681 15.7666 3.12371 15.24 2.91968C14.7299 2.72193 14.1482 2.58726 13.2966 2.54826C12.4432 2.50949 12.1716 2.5 9.99821 2.5H10.0007ZM9.28306 3.94057C9.49604 3.94027 9.7337 3.94057 10.0007 3.94057C12.1368 3.94057 12.3899 3.94825 13.2334 3.98653C14.0135 4.02221 14.4368 4.15241 14.7188 4.26186C15.0921 4.40676 15.3583 4.57995 15.6381 4.85976C15.9181 5.13956 16.0915 5.406 16.2368 5.77906C16.3462 6.06056 16.4768 6.48356 16.5123 7.26305C16.5506 8.10573 16.559 8.35881 16.559 10.4923C16.559 12.6257 16.5506 12.8789 16.5123 13.7216C16.4766 14.5011 16.3463 14.9241 16.2368 15.2056C16.0918 15.5786 15.9181 15.8442 15.6381 16.1238C15.3581 16.4036 15.0923 16.5768 14.7187 16.7217C14.4371 16.8317 14.0135 16.9616 13.2334 16.9972C12.3901 17.0355 12.1368 17.0438 10.0007 17.0438C7.86456 17.0438 7.61136 17.0355 6.76801 16.9972C5.98804 16.9612 5.56467 16.8309 5.2825 16.7215C4.90915 16.5767 4.64252 16.4035 4.36248 16.1237C4.08249 15.8438 3.90918 15.5781 3.7638 15.2048C3.65434 14.9234 3.52385 14.5003 3.48835 13.7209C3.45001 12.8782 3.44233 12.6251 3.44233 10.4903C3.44233 8.35555 3.45001 8.10374 3.48829 7.261C3.52397 6.48157 3.65434 6.05856 3.7638 5.77676C3.90881 5.40364 4.08249 5.1372 4.36248 4.8574C4.64246 4.57765 4.90915 4.40446 5.2825 4.2592C5.56449 4.14926 5.98804 4.01937 6.76801 3.98357C7.50602 3.95031 7.79205 3.94027 9.28306 3.93858V3.94057ZM14.2711 5.26794C13.7411 5.26794 13.3111 5.69712 13.3111 6.22692C13.3111 6.75653 13.7411 7.18619 14.2711 7.18619C14.8011 7.18619 15.2311 6.75653 15.2311 6.22692C15.2311 5.6973 14.8011 5.26794 14.2711 5.26794ZM10.0007 6.3888C7.73182 6.3888 5.89237 8.22698 5.89237 10.4942C5.89237 12.7613 7.73188 14.5986 10.0007 14.5986C12.2696 14.5986 14.1085 12.7613 14.1085 10.4942C14.1085 8.22698 12.2696 6.3888 10.0007 6.3888ZM10.0007 7.82944C11.4734 7.82944 12.6674 9.02238 12.6674 10.4942C12.6674 11.9657 11.4734 13.1589 10.0007 13.1589C8.52788 13.1589 7.33403 11.9658 7.33403 10.4942C7.33403 9.02238 8.52788 7.82944 10.0007 7.82944Z" fill="#737373"/>
<path d="M10.0007 2.5C7.82803 2.5 7.55536 2.50949 6.70197 2.54826C5.85034 2.58726 5.26902 2.72199 4.76033 2.91968C4.23421 3.12383 3.78781 3.39699 3.34315 3.84152C2.89814 4.28581 2.6248 4.73186 2.4198 5.25748C2.22145 5.76594 2.08648 6.34701 2.04814 7.19768C2.00998 8.0504 2 8.32307 2 10.4942C2 12.6652 2.00968 12.9368 2.04832 13.7895C2.0875 14.6406 2.2223 15.2215 2.41998 15.7298C2.6245 16.2555 2.89783 16.7016 3.34267 17.1459C3.78714 17.5906 4.23349 17.8644 4.75936 18.0686C5.26835 18.2663 5.84986 18.401 6.70137 18.44C7.5547 18.4788 7.82719 18.4882 9.99972 18.4882C12.1726 18.4882 12.4444 18.4788 13.2978 18.44C14.1495 18.401 14.7314 18.2663 15.2404 18.0686C15.7664 17.8644 16.2121 17.5906 16.6566 17.1459C17.1017 16.7016 17.375 16.2555 17.58 15.73C17.7767 15.2215 17.9116 14.6404 17.9517 13.7897C17.99 12.9371 18 12.6652 18 10.4942C18 8.32307 17.99 8.05058 17.9516 7.19786C17.9117 6.34683 17.7767 5.76587 17.58 5.2576C17.375 4.73186 17.1017 4.28581 16.6566 3.84152C16.2116 3.39681 15.7666 3.12371 15.24 2.91968C14.7299 2.72193 14.1482 2.58726 13.2966 2.54826C12.4432 2.50949 12.1716 2.5 9.99821 2.5H10.0007ZM9.28306 3.94057C9.49604 3.94027 9.7337 3.94057 10.0007 3.94057C12.1368 3.94057 12.3899 3.94825 13.2334 3.98653C14.0135 4.02221 14.4368 4.15241 14.7188 4.26186C15.0921 4.40676 15.3583 4.57995 15.6381 4.85976C15.9181 5.13956 16.0915 5.406 16.2368 5.77906C16.3462 6.06056 16.4768 6.48356 16.5123 7.26305C16.5506 8.10573 16.559 8.35881 16.559 10.4923C16.559 12.6257 16.5506 12.8789 16.5123 13.7216C16.4766 14.5011 16.3463 14.9241 16.2368 15.2056C16.0918 15.5786 15.9181 15.8442 15.6381 16.1238C15.3581 16.4036 15.0923 16.5768 14.7187 16.7217C14.4371 16.8317 14.0135 16.9616 13.2334 16.9972C12.3901 17.0355 12.1368 17.0438 10.0007 17.0438C7.86456 17.0438 7.61136 17.0355 6.76801 16.9972C5.98804 16.9612 5.56467 16.8309 5.2825 16.7215C4.90915 16.5767 4.64252 16.4035 4.36248 16.1237C4.08249 15.8438 3.90918 15.5781 3.7638 15.2048C3.65434 14.9234 3.52385 14.5003 3.48835 13.7209C3.45001 12.8782 3.44233 12.6251 3.44233 10.4903C3.44233 8.35555 3.45001 8.10374 3.48829 7.261C3.52397 6.48157 3.65434 6.05856 3.7638 5.77676C3.90881 5.40364 4.08249 5.1372 4.36248 4.8574C4.64246 4.57765 4.90915 4.40446 5.2825 4.2592C5.56449 4.14926 5.98804 4.01937 6.76801 3.98357C7.50602 3.95031 7.79205 3.94027 9.28306 3.93858V3.94057ZM14.2711 5.26794C13.7411 5.26794 13.3111 5.69712 13.3111 6.22692C13.3111 6.75653 13.7411 7.18619 14.2711 7.18619C14.8011 7.18619 15.2311 6.75653 15.2311 6.22692C15.2311 5.6973 14.8011 5.26794 14.2711 5.26794ZM10.0007 6.3888C7.73182 6.3888 5.89237 8.22698 5.89237 10.4942C5.89237 12.7613 7.73188 14.5986 10.0007 14.5986C12.2696 14.5986 14.1085 12.7613 14.1085 10.4942C14.1085 8.22698 12.2696 6.3888 10.0007 6.3888ZM10.0007 7.82944C11.4734 7.82944 12.6674 9.02238 12.6674 10.4942C12.6674 11.9657 11.4734 13.1589 10.0007 13.1589C8.52788 13.1589 7.33403 11.9658 7.33403 10.4942C7.33403 9.02238 8.52788 7.82944 10.0007 7.82944Z" fill="#737373"/>
</g>
<defs>
<clipPath id="clip0_1_1734">
<rect width="16" height="16" fill="white" transform="translate(2 2.5)"/>
</clipPath>
</defs>
</svg>
