<svg width="20" height="20" viewBox="0 0 20 20" fill="none" xmlns="http://www.w3.org/2000/svg">
<g clip-path="url(#clip0_1_1742)">
<path d="M8.00496 6.59168C6.88064 6.59168 5.83872 6.94416 4.9832 7.54448V3.12288H2.5V16.8557H4.9832V16.1738C5.83872 16.7739 6.88064 17.1266 8.00496 17.1266C10.9141 17.1266 13.2723 14.7683 13.2723 11.8592C13.2723 8.95008 10.9139 6.59168 8.00496 6.59168ZM7.76848 14.8259C6.1824 14.8259 4.89664 13.4966 4.89664 11.857C4.89664 10.2173 6.1824 8.888 7.76848 8.888C9.35456 8.888 10.6403 10.2173 10.6403 11.857C10.6403 13.4966 9.35456 14.8259 7.76848 14.8259ZM16.2976 2H17.2909V18H16.2976V2Z" fill="#03C75A"/>
<path d="M8.00496 6.59168C6.88064 6.59168 5.83872 6.94416 4.9832 7.54448V3.12288H2.5V16.8557H4.9832V16.1738C5.83872 16.7739 6.88064 17.1266 8.00496 17.1266C10.9141 17.1266 13.2723 14.7683 13.2723 11.8592C13.2723 8.95008 10.9139 6.59168 8.00496 6.59168ZM7.76848 14.8259C6.1824 14.8259 4.89664 13.4966 4.89664 11.857C4.89664 10.2173 6.1824 8.888 7.76848 8.888C9.35456 8.888 10.6403 10.2173 10.6403 11.857C10.6403 13.4966 9.35456 14.8259 7.76848 14.8259ZM16.2976 2H17.2909V18H16.2976V2Z" fill="#666666"/>
</g>
<defs>
<clipPath id="clip0_1_1742">
<rect width="14.7909" height="16" fill="white" transform="translate(2.5 2)"/>
</clipPath>
</defs>
</svg>
