<svg preserveAspectRatio="none" width="100%" height="100%" overflow="visible" style="display: block;" viewBox="0 0 120 38" fill="none" xmlns="http://www.w3.org/2000/svg">
<g id="_&#235;&#160;&#136;&#236;&#157;&#180;&#236;&#150;&#180;_1" opacity="0.3" clip-path="url(#clip0_0_116)">
<path id="Vector" fill-rule="evenodd" clip-rule="evenodd" d="M18.5808 26.3412H15.4312V14.6675H13.6379V26.3412H10.5788V5.91227H13.6379V12.3086H15.4312V5.91227H18.5808V26.3412Z" fill="var(--fill-0, white)"/>
<path id="Vector_2" fill-rule="evenodd" clip-rule="evenodd" d="M48.7808 21.5776C48.5096 21.6683 48.0575 21.6683 47.6054 21.6683C46.9725 21.6683 46.4299 21.5776 45.9929 21.3054C45.6312 21.0332 45.1792 20.6703 44.7271 20.1259C43.8229 18.9465 42.9338 17.8728 42.12 16.7841C41.2158 17.4192 40.7788 17.9636 40.7788 18.6743C40.7788 19.5664 41.3213 20.1108 42.4817 20.1108H44.0188V21.5625C43.4763 21.6532 42.8434 21.6532 42.0447 21.6532C39.7089 21.6532 38.5485 20.7459 38.5485 18.765C38.5485 17.5099 39.3623 16.4212 40.9747 15.4383C40.613 14.9847 40.3418 14.531 40.1609 14.2588C39.8897 13.7145 39.7089 13.1701 39.7089 12.7316C39.7089 11.7336 40.1609 11.1136 40.9596 10.66C41.5926 10.297 42.3159 10.2063 43.1146 10.2063C44.0188 10.2063 44.6517 10.297 45.1792 10.5692C46.0833 11.0229 46.5204 11.7336 46.5204 12.8223C46.5204 13.7296 46.0683 14.4403 45.1792 15.1661C44.9983 15.3476 44.5462 15.6198 44.0188 15.8919C44.7271 16.7992 45.4504 17.7821 46.3546 18.7801C47.0779 19.6874 47.7862 20.1411 48.6 20.1411H48.7808V21.5927V21.5776ZM44.275 12.913C44.275 12.0965 43.9133 11.7487 43.0995 11.7487C42.2858 11.7487 41.9392 12.1116 41.9392 12.8374C41.9392 13.1096 42.0296 13.4725 42.3008 13.8354C42.4817 14.1076 42.6625 14.3798 42.8434 14.652C43.205 14.3798 43.4763 14.2891 43.6571 14.1076C44.0941 13.8354 44.275 13.3818 44.275 12.9282" fill="var(--fill-0, white)"/>
<path id="Vector_3" fill-rule="evenodd" clip-rule="evenodd" d="M66.563 20.429H63.4134V8.75527H61.6201V20.429H58.6514V0H61.6201V6.39634H63.4134V0H66.563V20.429Z" fill="var(--fill-0, white)"/>
<g id="Group">
<path id="Vector_4" fill-rule="evenodd" clip-rule="evenodd" d="M35.8356 15.4842C35.8356 17.2837 35.2027 18.7353 33.8615 19.8089C32.5956 20.8977 30.8927 21.4269 28.8282 21.4269C26.7637 21.4269 25.1361 20.8826 23.7949 19.8089C22.5291 18.7202 21.9112 17.2837 21.9112 15.4842C21.9112 13.6848 22.5441 12.1575 23.7949 11.0688C25.1361 9.98005 26.8541 9.43568 28.8282 9.43568C30.8023 9.43568 32.5956 9.98005 33.8615 11.0688C35.2027 12.1575 35.8356 13.6848 35.8356 15.4842ZM32.4148 15.4842C32.4148 14.4862 32.0531 13.6848 31.4202 12.959C30.7873 12.339 29.8982 11.9609 28.8131 11.9609C27.8185 11.9609 26.9294 12.3239 26.2965 12.959C25.6636 13.6848 25.3019 14.4862 25.3019 15.4842C25.3019 16.4822 25.6636 17.2837 26.2965 17.9188C26.9144 18.5539 27.8185 18.9168 28.8131 18.9168C29.8982 18.9168 30.7873 18.5539 31.4202 17.9188C32.0531 17.2837 32.4148 16.4671 32.4148 15.4842Z" fill="var(--fill-0, white)"/>
<path id="Vector_5" fill-rule="evenodd" clip-rule="evenodd" d="M26.4773 37.9999H31.2544V26.3414H42.3005V23.181H15.4312V26.3414H26.4773V37.9999Z" fill="var(--fill-0, white)"/>
</g>
<path id="Vector_6" fill-rule="evenodd" clip-rule="evenodd" d="M83.456 10.2823C83.456 12.0817 82.823 13.5334 81.5723 14.607C80.2311 15.6958 78.6035 16.3157 76.539 16.3157C74.4744 16.3157 72.7565 15.6806 71.5057 14.607C70.1645 13.5334 69.5316 12.0817 69.5316 10.2823C69.5316 8.48286 70.1645 7.0312 71.5057 5.95759C72.7565 4.86885 74.4744 4.32448 76.539 4.32448C78.6035 4.32448 80.216 4.86885 81.5723 5.95759C82.823 7.0312 83.456 8.48286 83.456 10.2823ZM80.0502 10.2823C80.0502 9.28429 79.6885 8.48286 79.0707 7.84776C78.4378 7.21266 77.5336 6.84975 76.554 6.84975C75.469 6.84975 74.5799 7.21266 73.947 7.84776C73.3141 8.48286 72.9524 9.29941 72.9524 10.2823C72.9524 11.2652 73.3141 12.0817 73.947 12.7168C74.5799 13.4427 75.4841 13.7149 76.554 13.7149C77.5336 13.7149 78.4378 13.4427 79.0707 12.7168C79.7036 12.0817 80.0502 11.2652 80.0502 10.2823Z" fill="var(--fill-0, white)"/>
<path id="Vector_7" fill-rule="evenodd" clip-rule="evenodd" d="M119.97 18.0846H66.4723V20.4284H74.7456V27.5355H78.2568V20.4284H119.97V18.0846Z" fill="var(--fill-0, white)"/>
<path id="Vector_8" d="M69.4262 27.3842V37.8482H83.5766V27.3842H69.4262ZM80.0202 35.5044H72.9223V29.6373H80.0202V35.5044Z" fill="var(--fill-0, white)"/>
<path id="Vector_9" d="M6.1183 6.0941V10.9632H3.23999V6.0941H0V18.3727V20.7013H1.77822C1.77822 20.7013 1.91385 20.7013 1.97413 20.7013H9.25279V6.0941H6.10323H6.1183ZM6.07309 18.4483H3.19478V13.2163H6.07309V18.4483Z" fill="var(--fill-0, white)"/>
<path id="Vector_10" d="M54.0852 0.272135V5.14122H51.2069V0.272135H47.9669V12.5507V14.8794H49.7451C49.7451 14.8794 49.8807 14.8794 49.941 14.8794H57.2197V0.272135H54.0701H54.0852ZM54.04 12.6263H51.1617V7.3943H54.04V12.6263Z" fill="var(--fill-0, white)"/>
<path id="Vector_11" d="M89.8152 23.09L90.0714 23.1203L90.207 23.332V23.589C90.207 23.589 90.207 23.6797 90.207 23.71C90.207 23.7402 90.2372 23.8612 90.2522 24.0578L90.2975 24.1939V24.4056L90.4331 24.5417V24.6173L90.6139 26.084H90.6742L90.7495 26.1899H90.5687C90.6441 26.4016 90.7043 26.6133 90.7495 26.825L90.9304 26.9006L91.1112 26.7494L91.2921 26.825H91.3975H91.4277C91.4428 26.8401 91.5181 26.8552 91.6537 26.8704L91.9401 26.6587L92.3921 26.6889V26.5982L92.6935 26.6889L93.1908 26.5528L93.2963 26.447C93.2963 26.447 93.3867 26.3713 93.447 26.3562L93.6731 26.2806L93.7786 26.447H93.9594L94.0347 26.6738C93.9594 26.825 93.8991 26.9308 93.8238 26.9913L93.7635 26.9611L93.3114 27.4298L93.0854 27.5811H92.5278L92.2264 27.6718L91.9551 27.6113L91.4126 27.8381H91.3825L91.0509 27.9591L91.1263 29.1839H91.1414V29.2444L91.066 29.3351L91.1414 29.4107V29.6678L91.2167 29.7283L91.1564 29.8341L91.2619 29.9854L91.3222 30.439L91.3975 30.5448L91.4729 30.5146L91.503 30.5902V30.6658H91.4126L91.4428 31.3312C91.3825 31.437 91.3071 31.5429 91.2318 31.6185L91.0359 31.6487L90.9756 31.815L90.8249 31.7848V31.936L90.7646 32.0419C90.7345 32.0721 90.6441 32.1477 90.4632 32.2536L90.2673 32.0872C90.2673 32.0872 90.2221 32.0267 90.192 31.9663L90.1317 31.7999V31.4824L90.0262 30.9834L89.981 30.9078L90.0262 30.5902L89.981 30.318L90.0865 30.1063L89.9509 29.6527C89.9509 29.6527 90.0111 29.4863 90.0262 29.3654L89.981 29.2747L90.0262 29.0327C90.0262 29.0327 90.0111 28.821 89.9509 28.6093L90.0563 28.3825L90.0262 28.0045L89.8604 27.8986L89.7399 27.944V27.8986L89.4837 27.9288L89.5138 28.0801L89.3933 28.0498L89.2576 28.0801L89.2275 28.1103C89.0617 28.201 88.8809 28.2464 88.7302 28.2464H88.5644L88.2329 28.322L87.8863 28.3825V28.5337L87.615 28.4279V28.5337H87.5698L87.4041 28.7H87.178L87.2684 28.9269L87.0424 28.8815L86.7109 29.0781L86.6355 29.1688L86.4547 29.1083L86.2437 29.2595H86.0478V29.4107L85.8368 29.441L85.7464 29.6224L85.6409 29.7283L85.5053 30.0912L85.5505 30.1214C85.5505 30.1214 85.4752 30.2273 85.3697 30.3331V30.6356L85.1888 30.7565V30.817H85.1286V30.938L84.9477 31.0741V31.1195C84.9477 31.1195 84.8724 31.2102 84.8121 31.3312H84.7669L84.6313 31.7243L84.586 31.6487V31.6941L84.4504 31.7999L84.4203 31.9058C84.4203 31.9058 84.3751 31.9965 84.2997 32.057L84.0887 31.9814C84.0887 31.9814 84.0435 31.8755 84.0285 31.8755V31.7999L84.0435 31.7546L84.0737 31.6487C84.0737 31.6487 84.0134 31.437 83.9983 31.2253L84.0737 31.2707L84.0134 31.2102V31.1346H84.0285L83.9833 30.9682L84.0285 30.8624L83.9682 30.7263L83.9983 30.6809C83.9983 30.5902 83.9983 30.4844 83.9833 30.3331L84.0887 30.2424L84.3901 30.4844H84.571L85.219 29.6678L85.1135 29.6073V29.4863L84.9326 29.5771L84.9025 29.6376H84.8573L84.7217 29.6829C84.6915 29.698 84.6011 29.7283 84.4806 29.7434L84.2997 29.5015C84.3901 29.2746 84.4655 29.1386 84.5408 29.1083C84.5408 29.063 84.6011 28.9873 84.7217 28.8513L84.8573 28.8059H84.8422L85.0532 28.5035H85.0683L85.5656 28.3976L85.6258 28.5035L85.7313 28.4732V28.5035H85.8218L85.867 28.3976H86.0327V28.3674L86.1533 28.2615L86.0779 28.1254L86.1834 27.9742L86.4396 27.8684V27.8079V27.7171C86.4396 27.6869 86.4999 27.6264 86.6204 27.5357C86.6958 27.2484 86.7711 27.082 86.8465 27.0367H86.8013L87.0725 26.704H87.0876L87.4794 26.0992H87.4644L87.615 25.8723H87.6452L87.9617 25.2977H88.0069L88.263 24.8592L88.3384 24.829L88.474 24.587C88.474 24.587 88.5192 24.4812 88.5795 24.33L88.7603 24.1939L88.8658 23.9066H88.9261L88.9563 23.6797H89.0316V23.6041H89.0768L89.1371 23.468L89.5741 23.211L89.8002 23.0598L89.8152 23.09ZM88.9261 24.7836L88.7453 24.829V24.9046L88.5644 25.086H88.5042L88.248 25.4489H88.2178L88.037 25.8119V25.8723L87.9617 25.9782C87.9617 25.9782 87.9014 26.0538 87.8712 26.0689L87.7205 26.1596L87.6452 26.3411C87.6452 26.3411 87.6 26.5226 87.5849 26.7343L87.4794 26.704V26.8552L87.2534 27.0216H87.2684V27.1728L87.0876 27.2484L86.9369 27.6567C86.9068 27.7323 86.8766 27.7928 86.8465 27.8381L86.7109 28.0196L86.741 28.0498V28.0801L86.8013 28.1103H87.1328L87.2684 28.1859L87.7055 27.9137H88.0671L88.0822 27.9742L88.1124 27.8381H88.3233L88.7001 27.7323L88.8056 27.7625L89.0316 27.6869L89.3782 27.5508V27.5206L89.8152 27.4147V27.2786L89.6645 27.1425V26.704L89.7851 26.4167L89.6645 26.326L89.4988 26.4167L89.2878 26.1294H89.5741V26.0236L89.2275 25.9479L89.2576 25.8572L89.1522 25.7362L89.2124 25.6304L89.0316 25.3431L89.0617 25.2826L89.107 25.2524L89.0165 25.1768L88.9563 24.7836L88.8809 24.7382L88.9261 24.7836Z" fill="var(--fill-0, white)"/>
<g id="Group_2">
<path id="Vector_12" d="M92.9047 27.5814C93.2061 27.536 93.628 27.4907 94.1253 27.4907C94.7281 27.4907 95.1501 27.5814 95.4364 27.8082C95.6775 28.0048 95.8131 28.2921 95.8131 28.6701C95.8131 29.1842 95.4515 29.5472 95.1049 29.6681C95.3912 29.8042 95.5419 30.0613 95.6474 30.4393C95.7679 30.9081 95.8885 31.4373 95.9789 31.5885H95.0446C94.9843 31.4676 94.8788 31.1349 94.7733 30.6359C94.6528 30.1218 94.487 29.9857 94.1103 29.9857H93.839V31.5885H92.9348V27.5814H92.9047ZM93.8089 29.3355H94.1705C94.6226 29.3355 94.8939 29.1086 94.8939 28.7457C94.8939 28.3828 94.6377 28.1862 94.2157 28.1862C93.9897 28.1862 93.8691 28.1862 93.7938 28.2165V29.3355H93.8089Z" fill="var(--fill-0, white)"/>
<path id="Vector_13" d="M97.0641 28.307H95.964V27.5358H99.0834V28.307H97.9833V31.6035H97.0641V28.307Z" fill="var(--fill-0, white)"/>
<path id="Vector_14" d="M103.393 31.4978C103.227 31.5734 102.851 31.6793 102.353 31.6793C100.952 31.6793 100.229 30.8022 100.229 29.6379C100.229 28.2467 101.208 27.4907 102.444 27.4907C102.926 27.4907 103.288 27.5814 103.438 27.6721L103.243 28.3979C103.062 28.3223 102.805 28.2467 102.474 28.2467C101.751 28.2467 101.193 28.6852 101.193 29.5925C101.193 30.4091 101.675 30.9232 102.489 30.9232C102.775 30.9232 103.077 30.8627 103.258 30.7871L103.393 31.5129V31.4978Z" fill="var(--fill-0, white)"/>
<path id="Vector_15" d="M106.226 29.8796H104.734V30.8474H106.407V31.6035H103.83V27.5358H106.332V28.2919H104.749V29.1387H106.241V29.8947L106.226 29.8796Z" fill="var(--fill-0, white)"/>
<path id="Vector_16" d="M106.844 31.6035V27.5358H107.914L108.758 29.0328C108.999 29.4562 109.24 29.9703 109.421 30.424C109.361 29.8947 109.346 29.3352 109.346 28.7153V27.5358H110.19V31.6035H109.225L108.366 30.0308C108.125 29.5923 107.854 29.0782 107.658 28.5943H107.628C107.658 29.1387 107.673 29.7133 107.673 30.3786V31.6035H106.829H106.844Z" fill="var(--fill-0, white)"/>
<path id="Vector_17" d="M111.591 28.307H110.491V27.5358H113.61V28.307H112.51V31.6035H111.591V28.307Z" fill="var(--fill-0, white)"/>
<path id="Vector_18" d="M116.323 29.8796H114.831V30.8474H116.504V31.6035H113.927V27.5358H116.428V28.2919H114.846V29.1387H116.338V29.8947L116.323 29.8796Z" fill="var(--fill-0, white)"/>
<path id="Vector_19" d="M116.926 27.5814C117.227 27.536 117.649 27.4907 118.146 27.4907C118.749 27.4907 119.171 27.5814 119.457 27.8082C119.699 28.0048 119.834 28.2921 119.834 28.6701C119.834 29.1842 119.473 29.5472 119.126 29.6681C119.412 29.8042 119.563 30.0613 119.668 30.4393C119.789 30.9081 119.91 31.4373 120 31.5885H119.066C119.005 31.4676 118.9 31.1349 118.794 30.6359C118.674 30.1218 118.508 29.9857 118.131 29.9857H117.86V31.5885H116.956V27.5814H116.926ZM117.845 29.3355H118.207C118.659 29.3355 118.93 29.1086 118.93 28.7457C118.93 28.3828 118.674 28.1862 118.252 28.1862C118.026 28.1862 117.905 28.1862 117.83 28.2165V29.3355H117.845Z" fill="var(--fill-0, white)"/>
</g>
</g>
<defs>
<clipPath id="clip0_0_116">
<rect width="120" height="38" fill="white"/>
</clipPath>
</defs>
</svg>
