<svg preserveAspectRatio="none" width="100%" height="100%" overflow="visible" style="display: block;" viewBox="0 0 141 44" fill="none" xmlns="http://www.w3.org/2000/svg">
<g id="ci">
<path d="M43.8385 7.68432H65.6798C67.1047 7.68432 68.307 7.90835 69.2643 8.33401C70.2217 8.75967 70.9564 9.43177 71.424 10.3503C71.9138 11.2464 72.1364 12.4114 72.1364 13.8452V15.7943C72.1364 17.0713 71.8915 18.1018 71.424 18.8859C70.9342 19.6925 70.1772 20.2749 69.153 20.6782V20.0061C70.2662 20.3646 71.1123 20.9246 71.6689 21.7088C72.2477 22.4929 72.5149 23.5458 72.5149 24.8676V26.8167C72.5149 28.2281 72.27 29.3931 71.8025 30.3116C71.3126 31.2301 70.6002 31.9246 69.6428 32.3727C68.6855 32.8432 67.7949 33.0672 66.3254 33.0672H43.8385V7.68432ZM65.9469 17.8106C66.1696 17.6314 66.2809 17.3177 66.2809 16.8921V14.1141C66.2809 13.8452 66.2364 13.6212 66.1251 13.4196C66.036 13.2403 65.8802 13.1059 65.6575 13.0387C65.4571 12.9715 65.19 12.9267 64.856 12.9267H49.8498V18.1018H64.856C65.3458 18.1018 65.702 18.0122 65.9247 17.833L65.9469 17.8106ZM65.9915 28.3177C66.1919 28.2505 66.3477 28.1161 66.459 27.9369C66.5481 27.7576 66.6149 27.5112 66.6149 27.2424V24.3971C66.6149 23.9715 66.5036 23.6802 66.2586 23.4786C66.0137 23.2994 65.6575 23.2098 65.1677 23.2098H49.8498V28.4521H65.1677C65.5239 28.4521 65.7911 28.4073 65.9915 28.3401V28.3177Z" fill="var(--fill-0, white)"/>
<path d="M77.8138 7.68432H86.0962L103.284 29.2811H100.946V7.68432H107.047V33.0224H98.8091L81.3316 11.1568H83.8475L83.9143 33.0224H77.8361V7.68432H77.8138Z" fill="var(--fill-0, white)"/>
<path d="M112.324 7.68432H134.165C135.59 7.68432 136.792 7.90835 137.749 8.33401C138.707 8.75967 139.441 9.43177 139.909 10.3503C140.399 11.2464 140.622 12.4114 140.622 13.8452V15.7943C140.622 17.0713 140.377 18.1018 139.909 18.8859C139.419 19.6925 138.662 20.2749 137.638 20.6782V20.0061C138.751 20.3646 139.597 20.9246 140.154 21.7088C140.733 22.4929 141 23.5458 141 24.8676V26.8167C141 28.2281 140.755 29.3931 140.288 30.3116C139.798 31.2301 139.085 31.9246 138.128 32.3727C137.171 32.8432 136.28 33.0672 134.811 33.0672H112.324V7.68432ZM134.432 17.8106C134.655 17.6314 134.766 17.3177 134.766 16.8921V14.1141C134.766 13.8452 134.721 13.6212 134.61 13.4196C134.521 13.2403 134.365 13.1059 134.143 13.0387C133.942 12.9715 133.675 12.9267 133.341 12.9267H118.335V18.1018H133.341C133.831 18.1018 134.187 18.0122 134.41 17.833L134.432 17.8106ZM134.499 28.3177C134.699 28.2505 134.855 28.1161 134.966 27.9369C135.055 27.7576 135.122 27.5112 135.122 27.2424V24.3971C135.122 23.9715 135.011 23.6802 134.766 23.4786C134.521 23.2994 134.165 23.2098 133.675 23.2098H118.357V28.4521H133.675C134.031 28.4521 134.298 28.4073 134.499 28.3401V28.3177Z" fill="var(--fill-0, white)"/>
<path d="M43.8385 40.7067V36.4053H45.1743V40.7067H43.8385Z" fill="var(--fill-0, white)"/>
<path d="M54.5476 36.4053H55.9057L58.7556 39.2729L58.4661 39.3401V36.4277H59.6907V40.7291H58.5107L55.6163 37.8167L55.7721 37.7495V40.7291H54.5476V36.4053Z" fill="var(--fill-0, white)"/>
<path d="M67.0379 40.7067V36.4053H69.576C70.0213 36.4053 70.4443 36.4501 70.7783 36.5397C71.1345 36.6293 71.424 36.7637 71.6689 36.9654C71.9138 37.1446 72.0919 37.3686 72.2255 37.6375C72.3591 37.9063 72.4036 38.1976 72.4036 38.556C72.4036 39.0041 72.2923 39.3849 72.0919 39.6986C71.8693 40.0122 71.5576 40.2811 71.1345 40.4379C70.7115 40.6171 70.1549 40.7067 69.5092 40.7067H67.0379ZM68.3738 39.6986H69.4647C69.8655 39.6986 70.1549 39.6538 70.3998 39.5642C70.6225 39.4745 70.8006 39.3401 70.8896 39.1609C70.9787 38.9817 71.0455 38.78 71.0455 38.556C71.0455 38.3096 71.0009 38.1079 70.8896 37.9287C70.8006 37.7495 70.6447 37.6375 70.4221 37.5479C70.1994 37.4582 69.91 37.4134 69.5538 37.4134H68.3738V39.721V39.6986Z" fill="var(--fill-0, white)"/>
<path d="M82.3335 40.7739C81.7769 40.7739 81.3093 40.7067 80.9086 40.5499C80.5301 40.3931 80.2184 40.1466 80.018 39.8106C79.8176 39.4745 79.7063 39.0489 79.7063 38.5112V36.4053H81.0422V38.5336C81.0422 38.8473 81.0867 39.0937 81.1757 39.2729C81.2648 39.4521 81.4207 39.5866 81.5988 39.6762C81.7992 39.7658 82.0218 39.7882 82.3112 39.7882C82.5561 39.7882 82.7565 39.7658 82.9346 39.6986C83.0905 39.6538 83.2241 39.5642 83.3354 39.4521C83.4244 39.3401 83.5135 39.2057 83.5358 39.0489C83.5803 38.8921 83.6026 38.7128 83.6026 38.5112V36.3829H84.9161V38.4888C84.9161 39.0265 84.8271 39.4521 84.6267 39.7882C84.4263 40.1242 84.1369 40.3707 83.7361 40.5275C83.3577 40.6843 82.8678 40.7515 82.3112 40.7515L82.3335 40.7739Z" fill="var(--fill-0, white)"/>
<path d="M95.1577 40.7963C94.5789 40.7963 94.0891 40.7515 93.6883 40.6395C93.2875 40.5275 92.9981 40.3707 92.7977 40.1466C92.5973 39.9226 92.486 39.6762 92.486 39.3849H93.8219C93.8219 39.4969 93.8887 39.609 94 39.6986C94.1113 39.7882 94.2672 39.8554 94.4675 39.9002C94.6679 39.945 94.8906 39.9674 95.1355 39.9674C95.3136 39.9674 95.4917 39.9674 95.6253 39.9226C95.7589 39.9002 95.8702 39.833 95.9593 39.7658C96.0483 39.6986 96.0706 39.609 96.0706 39.4969C96.0706 39.3849 96.0261 39.2953 95.9147 39.2505C95.8257 39.1833 95.6921 39.1385 95.514 39.1161C95.3581 39.0937 95.1578 39.0713 94.9574 39.0489C94.757 39.0489 94.5343 39.0041 94.3117 38.9817C94.0891 38.9817 93.8664 38.9145 93.666 38.8697C93.4657 38.8248 93.2653 38.7576 93.1094 38.668C92.9536 38.5784 92.82 38.4664 92.7087 38.332C92.6196 38.1976 92.5528 37.9959 92.5528 37.7943C92.5528 37.4807 92.6419 37.2118 92.82 36.9878C92.9981 36.7637 93.243 36.6069 93.577 36.4949C93.9109 36.3829 94.3117 36.3381 94.7792 36.3381C95.3136 36.3381 95.7589 36.3829 96.1374 36.4949C96.5159 36.6069 96.8053 36.7637 97.0057 36.9654C97.2061 37.167 97.2951 37.4134 97.2951 37.7047H95.9815C95.9815 37.5927 95.9147 37.4807 95.8034 37.4134C95.6921 37.3462 95.5585 37.279 95.3804 37.2342C95.2023 37.1894 94.9796 37.167 94.757 37.167C94.5789 37.167 94.4008 37.167 94.2672 37.2118C94.1336 37.2566 94.0223 37.3014 93.9555 37.3686C93.8887 37.4358 93.8441 37.5255 93.8441 37.6375C93.8441 37.7495 93.8887 37.8391 94 37.8839C94.0891 37.9511 94.2449 37.9959 94.4008 38.0183C94.5789 38.0407 94.757 38.0855 94.9574 38.0855C95.1578 38.0855 95.3804 38.1303 95.603 38.1528C95.8257 38.1752 96.0483 38.22 96.2487 38.2648C96.4491 38.3096 96.6495 38.3768 96.8276 38.4664C97.0057 38.556 97.1393 38.668 97.2283 38.8248C97.3174 38.9817 97.3842 39.1609 97.3842 39.3849C97.3842 39.6986 97.2951 39.9674 97.117 40.169C96.9389 40.3707 96.6717 40.5275 96.3378 40.6171C96.0038 40.7067 95.603 40.7739 95.1355 40.7739L95.1577 40.7963Z" fill="var(--fill-0, white)"/>
<path d="M106.891 40.7067V37.4358H105.221V36.4053H109.874V37.4358H108.205V40.7067H106.869H106.891Z" fill="var(--fill-0, white)"/>
<path d="M117.667 40.7067V36.4053H119.96C120.361 36.4053 120.695 36.4501 120.962 36.5173C121.252 36.5845 121.474 36.6741 121.652 36.8086C121.83 36.943 121.964 37.0774 122.053 37.2566C122.142 37.4358 122.187 37.6375 122.187 37.8615C122.187 38.1079 122.142 38.332 122.031 38.5336C121.919 38.7352 121.764 38.8921 121.563 39.0265C121.363 39.1609 121.073 39.2281 120.739 39.2505L120.495 39.3401C120.495 39.3401 120.272 39.3625 120.138 39.3849C120.005 39.3849 119.893 39.3849 119.782 39.3849H118.758V38.5784H119.671C119.982 38.5784 120.205 38.556 120.361 38.5112C120.517 38.4664 120.628 38.3768 120.695 38.2872C120.762 38.1976 120.784 38.0631 120.784 37.9287C120.784 37.7943 120.739 37.6599 120.673 37.5703C120.606 37.4807 120.495 37.4134 120.339 37.3686C120.183 37.3238 119.982 37.3014 119.738 37.3014H118.558L118.958 36.8086V40.6843H117.622L117.667 40.7067ZM121.096 40.7067L119.649 39.0713L120.962 38.8473L122.654 40.7067H121.096Z" fill="var(--fill-0, white)"/>
<path d="M132.183 39.1609L129.89 36.4053H131.449L132.807 38.0631L134.209 36.4053H135.657L133.363 39.1609H132.183ZM132.094 40.7067V38.5336H133.43V40.7067H132.094Z" fill="var(--fill-0, white)"/>
<path d="M18.9247 0L0 11V33L18.9247 44L37.8494 33V11L18.9247 0ZM31.927 29.6171L18.9469 37.167L5.96684 29.6171V14.5173L18.9469 6.96741L31.927 14.5173V29.6171Z" fill="var(--fill-0, white)"/>
</g>
</svg>
