<svg width="270" height="430" viewBox="0 0 270 430" fill="none" xmlns="http://www.w3.org/2000/svg">
<g clip-path="url(#clip0_526_29395)">
<rect width="270" height="430" fill="#FA4242"/>
<rect width="270" height="430" fill="url(#paint0_linear_526_29395)"/>
<path d="M135 0L0 107.5V322.5L135 430L270 322.5V107.5L135 0Z" fill="url(#paint1_linear_526_29395)"/>
<path d="M63.0238 204.589H78.9788C80.0197 204.589 80.898 204.752 81.5973 205.061C82.2967 205.371 82.8334 205.859 83.175 206.527C83.5328 207.179 83.6954 208.026 83.6954 209.069V210.487C83.6954 211.415 83.5165 212.165 83.175 212.735C82.8171 213.322 82.2642 213.745 81.516 214.039V213.55C82.3292 213.811 82.9473 214.218 83.3539 214.788C83.7767 215.358 83.9719 216.124 83.9719 217.086V218.503C83.9719 219.53 83.793 220.377 83.4514 221.045C83.0936 221.713 82.5732 222.218 81.8738 222.544C81.1745 222.886 80.5239 223.049 79.4505 223.049H63.0238V204.589ZM79.174 211.953C79.3366 211.823 79.418 211.595 79.418 211.285V209.265C79.418 209.069 79.3854 208.906 79.3041 208.76C79.2391 208.629 79.1252 208.532 78.9626 208.483C78.8162 208.434 78.621 208.401 78.3771 208.401H67.4151V212.165H78.3771C78.7349 212.165 78.9951 212.1 79.1577 211.969L79.174 211.953ZM79.2065 219.595C79.3529 219.546 79.4668 219.448 79.5481 219.318C79.6131 219.187 79.6619 219.008 79.6619 218.813V216.743C79.6619 216.434 79.5806 216.222 79.4017 216.075C79.2228 215.945 78.9626 215.88 78.6048 215.88H67.4151V219.692H78.6048C78.865 219.692 79.0602 219.66 79.2065 219.611V219.595Z" fill="white"/>
<path d="M87.8427 204.589H93.8929L106.449 220.295H104.741V204.589H109.197V223.016H103.18L90.4124 207.114H92.2503L92.2991 223.016H87.859V204.589H87.8427Z" fill="white"/>
<path d="M113.052 204.589H129.007C130.048 204.589 130.926 204.752 131.625 205.061C132.325 205.371 132.862 205.859 133.203 206.527C133.561 207.179 133.724 208.026 133.724 209.069V210.487C133.724 211.415 133.545 212.165 133.203 212.735C132.845 213.322 132.292 213.745 131.544 214.039V213.55C132.357 213.811 132.975 214.218 133.382 214.788C133.805 215.358 134 216.124 134 217.086V218.503C134 219.53 133.821 220.377 133.48 221.045C133.122 221.713 132.601 222.218 131.902 222.544C131.203 222.886 130.552 223.049 129.479 223.049H113.052V204.589ZM129.202 211.953C129.365 211.823 129.446 211.595 129.446 211.285V209.265C129.446 209.069 129.414 208.906 129.332 208.76C129.267 208.629 129.153 208.532 128.991 208.483C128.844 208.434 128.649 208.401 128.405 208.401H117.443V212.165H128.405C128.763 212.165 129.023 212.1 129.186 211.969L129.202 211.953ZM129.251 219.595C129.397 219.546 129.511 219.448 129.592 219.318C129.658 219.187 129.706 219.008 129.706 218.813V216.743C129.706 216.434 129.625 216.222 129.446 216.075C129.267 215.945 129.007 215.88 128.649 215.88H117.459V219.692H128.649C128.909 219.692 129.105 219.66 129.251 219.611V219.595Z" fill="white"/>
<path d="M63.0238 228.605V225.477H63.9997V228.605H63.0238Z" fill="white"/>
<path d="M70.8468 225.477H71.8389L73.9207 227.562L73.7093 227.611V225.493H74.6038V228.621H73.7418L71.6275 226.503L71.7414 226.454V228.621H70.8468V225.477Z" fill="white"/>
<path d="M79.9709 228.605V225.477H81.825C82.1503 225.477 82.4593 225.509 82.7033 225.574C82.9635 225.64 83.175 225.737 83.3539 225.884C83.5328 226.014 83.6629 226.177 83.7605 226.373C83.858 226.568 83.8906 226.78 83.8906 227.041C83.8906 227.367 83.8093 227.644 83.6629 227.872C83.5002 228.1 83.2725 228.295 82.9635 228.409C82.6545 228.54 82.2479 228.605 81.7762 228.605H79.9709ZM80.9468 227.872H81.7437C82.0365 227.872 82.2479 227.839 82.4268 227.774C82.5895 227.709 82.7196 227.611 82.7846 227.481C82.8497 227.35 82.8985 227.204 82.8985 227.041C82.8985 226.862 82.8659 226.715 82.7846 226.585C82.7196 226.454 82.6057 226.373 82.4431 226.308C82.2804 226.242 82.069 226.21 81.8088 226.21H80.9468V227.888V227.872Z" fill="white"/>
<path d="M91.1443 228.654C90.7377 228.654 90.3962 228.605 90.1034 228.491C89.8269 228.377 89.5992 228.198 89.4529 227.953C89.3065 227.709 89.2252 227.399 89.2252 227.008V225.477H90.201V227.024C90.201 227.253 90.2335 227.432 90.2986 227.562C90.3636 227.692 90.4775 227.79 90.6076 227.855C90.754 227.921 90.9166 227.937 91.1281 227.937C91.307 227.937 91.4533 227.921 91.5834 227.872C91.6973 227.839 91.7949 227.774 91.8762 227.692C91.9413 227.611 92.0063 227.513 92.0226 227.399C92.0551 227.285 92.0714 227.155 92.0714 227.008V225.46H93.0309V226.992C93.0309 227.383 92.9659 227.692 92.8195 227.937C92.6731 228.181 92.4617 228.36 92.169 228.475C91.8925 228.589 91.5347 228.637 91.1281 228.637L91.1443 228.654Z" fill="white"/>
<path d="M100.512 228.67C100.09 228.67 99.7317 228.637 99.439 228.556C99.1462 228.475 98.9348 228.36 98.7884 228.198C98.642 228.035 98.5607 227.855 98.5607 227.644H99.5365C99.5365 227.725 99.5853 227.807 99.6667 227.872C99.748 227.937 99.8618 227.986 100.008 228.018C100.155 228.051 100.317 228.067 100.496 228.067C100.626 228.067 100.756 228.067 100.854 228.035C100.952 228.018 101.033 227.969 101.098 227.921C101.163 227.872 101.179 227.807 101.179 227.725C101.179 227.644 101.147 227.578 101.065 227.546C101 227.497 100.903 227.464 100.773 227.448C100.659 227.432 100.512 227.415 100.366 227.399C100.22 227.399 100.057 227.367 99.8944 227.35C99.7317 227.35 99.5691 227.301 99.4227 227.269C99.2763 227.236 99.13 227.187 99.0161 227.122C98.9023 227.057 98.8047 226.976 98.7234 226.878C98.6583 226.78 98.6095 226.633 98.6095 226.487C98.6095 226.259 98.6746 226.063 98.8047 225.9C98.9348 225.737 99.1137 225.623 99.3576 225.542C99.6016 225.46 99.8944 225.428 100.236 225.428C100.626 225.428 100.952 225.46 101.228 225.542C101.505 225.623 101.716 225.737 101.862 225.884C102.009 226.031 102.074 226.21 102.074 226.422H101.114C101.114 226.34 101.065 226.259 100.984 226.21C100.903 226.161 100.805 226.112 100.675 226.079C100.545 226.047 100.382 226.031 100.22 226.031C100.09 226.031 99.9594 226.031 99.8618 226.063C99.7642 226.096 99.6829 226.128 99.6341 226.177C99.5853 226.226 99.5528 226.291 99.5528 226.373C99.5528 226.454 99.5853 226.519 99.6667 226.552C99.7317 226.601 99.8456 226.633 99.9594 226.65C100.09 226.666 100.22 226.699 100.366 226.699C100.512 226.699 100.675 226.731 100.838 226.747C101 226.764 101.163 226.796 101.309 226.829C101.456 226.862 101.602 226.91 101.732 226.976C101.862 227.041 101.96 227.122 102.025 227.236C102.09 227.35 102.139 227.481 102.139 227.644C102.139 227.872 102.074 228.067 101.944 228.214C101.814 228.36 101.618 228.475 101.374 228.54C101.13 228.605 100.838 228.654 100.496 228.654L100.512 228.67Z" fill="white"/>
<path d="M109.084 228.605V226.226H107.864V225.477H111.263V226.226H110.043V228.605H109.067H109.084Z" fill="white"/>
<path d="M116.955 228.605V225.477H118.631C118.923 225.477 119.167 225.509 119.362 225.558C119.574 225.607 119.736 225.672 119.867 225.77C119.997 225.868 120.094 225.965 120.159 226.096C120.224 226.226 120.257 226.373 120.257 226.536C120.257 226.715 120.224 226.878 120.143 227.024C120.062 227.171 119.948 227.285 119.802 227.383C119.655 227.481 119.444 227.53 119.2 227.546L119.021 227.611C119.021 227.611 118.858 227.627 118.761 227.644C118.663 227.644 118.582 227.644 118.5 227.644H117.752V227.057H118.419C118.647 227.057 118.809 227.041 118.923 227.008C119.037 226.976 119.118 226.91 119.167 226.845C119.216 226.78 119.232 226.682 119.232 226.585C119.232 226.487 119.2 226.389 119.151 226.324C119.102 226.259 119.021 226.21 118.907 226.177C118.793 226.145 118.647 226.128 118.468 226.128H117.606L117.899 225.77V228.589H116.923L116.955 228.605ZM119.46 228.605L118.403 227.415L119.362 227.253L120.598 228.605H119.46Z" fill="white"/>
<path d="M127.559 227.481L125.884 225.477H127.023L128.015 226.682L129.039 225.477H130.097L128.421 227.481H127.559ZM127.494 228.605V227.024H128.47V228.605H127.494Z" fill="white"/>
<path d="M44.8244 199L31 207V223L44.8244 231L58.6488 223V207L44.8244 199ZM54.3226 220.54L44.8407 226.031L35.3588 220.54V209.558L44.8407 204.067L54.3226 209.558V220.54Z" fill="white"/>
</g>
<rect x="1" y="1" width="268" height="428" rx="19" stroke="url(#paint2_linear_526_29395)" stroke-width="2"/>
<defs>
<linearGradient id="paint0_linear_526_29395" x1="270" y1="430" x2="6.44563e-06" y2="-4.04725e-06" gradientUnits="userSpaceOnUse">
<stop stop-color="#8F256B"/>
<stop offset="0.5" stop-color="#D74A4B"/>
<stop offset="1" stop-color="#F86F36"/>
</linearGradient>
<linearGradient id="paint1_linear_526_29395" x1="270" y1="215" x2="0" y2="215" gradientUnits="userSpaceOnUse">
<stop stop-color="#F0A43C"/>
<stop offset="1" stop-color="#DE2359"/>
</linearGradient>
<linearGradient id="paint2_linear_526_29395" x1="-2.01166e-06" y1="215" x2="270" y2="215" gradientUnits="userSpaceOnUse">
<stop stop-color="#FAFAFA" stop-opacity="0.8"/>
<stop offset="1" stop-color="#FAFAFA" stop-opacity="0.1"/>
</linearGradient>
<clipPath id="clip0_526_29395">
<rect width="270" height="430" rx="20" fill="white"/>
</clipPath>
</defs>
</svg>
