<svg width="123" height="36" viewBox="0 0 123 36" fill="none" xmlns="http://www.w3.org/2000/svg">
<g clip-path="url(#clip0_299_7619)">
<path fill-rule="evenodd" clip-rule="evenodd" d="M17.671 24.953H14.7005V13.8912H12.9966V24.953H10.1016V5.59863H12.9966V11.6667H14.7005V5.59863H17.671V24.953Z" fill="white"/>
<path fill-rule="evenodd" clip-rule="evenodd" d="M46.275 20.4286C46.0187 20.5194 45.5965 20.5194 45.1743 20.5194C44.5711 20.5194 44.0735 20.4286 43.6363 20.1713C43.3045 19.9141 42.8673 19.566 42.4451 19.0667C41.6007 17.9469 40.7412 16.933 39.9722 15.904C39.1278 16.4941 38.6905 17.0086 38.6905 17.7047C38.6905 18.5522 39.2032 19.0667 40.3039 19.0667H41.7514V20.4286C41.2388 20.5194 40.6356 20.5194 39.8817 20.5194C37.6652 20.5194 36.5645 19.672 36.5645 17.7804C36.5645 16.5849 37.3335 15.5559 38.8564 14.6177C38.5247 14.194 38.2532 13.7552 38.0874 13.4979C37.831 12.9834 37.6652 12.4689 37.6652 12.0452C37.6652 11.107 38.0874 10.5017 38.8564 10.078C39.4595 9.72996 40.1381 9.6543 40.892 9.6543C41.7514 9.6543 42.3395 9.74509 42.8522 10.0023C43.6966 10.426 44.1338 11.107 44.1338 12.136C44.1338 12.9834 43.7117 13.6795 42.8522 14.3605C42.6863 14.5269 42.2641 14.7842 41.7514 15.0414C42.43 15.904 43.1085 16.8422 43.968 17.7804C44.6465 18.6429 45.3251 19.0667 46.0941 19.0667H46.2599V20.4286H46.275ZM42.0229 12.2268C42.0229 11.4551 41.6761 11.1221 40.9221 11.1221C40.1682 11.1221 39.8214 11.4702 39.8214 12.1511C39.8214 12.4084 39.9119 12.7413 40.1682 13.0894C40.3341 13.3466 40.515 13.6039 40.6809 13.8611C41.0277 13.6039 41.284 13.5131 41.4499 13.3466C41.8721 13.0894 42.0379 12.6656 42.0379 12.2268" fill="white"/>
<path fill-rule="evenodd" clip-rule="evenodd" d="M63.1327 19.3543H60.1471V8.29256H58.4433V19.3543H55.6387V0H58.4433V6.0681H60.1471V0H63.1327V19.3543Z" fill="white"/>
<path fill-rule="evenodd" clip-rule="evenodd" d="M34.0159 14.6629C34.0159 16.3729 33.4128 17.7348 32.1462 18.7638C30.955 19.7928 29.3416 20.2922 27.3814 20.2922C25.4212 20.2922 23.8832 19.7777 22.6166 18.7638C21.4254 17.7348 20.8223 16.3729 20.8223 14.6629C20.8223 12.953 21.4103 11.5002 22.6166 10.4712C23.8832 9.44224 25.5117 8.92773 27.3814 8.92773C29.2511 8.92773 30.955 9.44224 32.1462 10.4712C33.4279 11.5002 34.0159 12.953 34.0159 14.6629ZM30.7891 14.6629C30.7891 13.7247 30.4574 12.953 29.8543 12.272C29.2511 11.6818 28.4067 11.3338 27.3814 11.3338C26.4465 11.3338 25.5871 11.6818 24.999 12.272C24.3959 12.953 24.0641 13.7247 24.0641 14.6629C24.0641 15.6011 24.4109 16.3729 24.999 16.963C25.5871 17.5532 26.4465 17.9013 27.3814 17.9013C28.4067 17.9013 29.2511 17.5532 29.8543 16.963C30.4574 16.3729 30.7891 15.6011 30.7891 14.6629Z" fill="white"/>
<path fill-rule="evenodd" clip-rule="evenodd" d="M25.1647 35.9999H29.6731V24.9532H40.1527V21.957H14.7002V24.9532H25.1647V35.9999Z" fill="white"/>
<path fill-rule="evenodd" clip-rule="evenodd" d="M79.1312 9.74497C79.1312 11.4549 78.528 12.8169 77.3368 13.8459C76.0552 14.8749 74.5322 15.465 72.572 15.465C70.6118 15.465 68.9984 14.8597 67.8072 13.8459C66.5256 12.832 65.9375 11.4549 65.9375 9.74497C65.9375 8.03501 66.5256 6.6731 67.8072 5.64409C68.9984 4.61509 70.6118 4.10059 72.572 4.10059C74.5322 4.10059 76.0552 4.61509 77.3368 5.64409C78.528 6.6731 79.1312 8.03501 79.1312 9.74497ZM75.8893 9.74497C75.8893 8.80676 75.5576 8.03501 74.9544 7.44485C74.3513 6.83955 73.5069 6.50664 72.572 6.50664C71.5467 6.50664 70.7023 6.83955 70.0992 7.44485C69.496 8.05014 69.1643 8.80676 69.1643 9.74497C69.1643 10.6832 69.5111 11.4549 70.0992 12.0451C70.7023 12.7261 71.5467 12.9833 72.572 12.9833C73.5069 12.9833 74.3513 12.7261 74.9544 12.0451C75.5425 11.4549 75.8893 10.6832 75.8893 9.74497Z" fill="white"/>
<path fill-rule="evenodd" clip-rule="evenodd" d="M122.044 17.1299H63.042V19.3543H70.8828V26.0883H74.2001V19.3543H122.044V17.1299Z" fill="white"/>
<path d="M65.8311 25.9521V35.8639H79.2358V25.9521H65.8311ZM75.8733 33.6394H69.1483V28.0858H75.8733V33.6394Z" fill="white"/>
<path d="M5.86436 5.78027V10.3957H3.13515V5.78027H0.0742188V17.4171V19.6264H1.76301C1.76301 19.6264 1.88364 19.6264 1.94395 19.6264H8.83482V5.78027H5.86436ZM5.81912 17.4776H3.08991V12.5293H5.81912V17.4776Z" fill="white"/>
<path d="M51.296 0.256836V4.87222H48.5668V0.256836H45.5059V11.8937V14.103H47.1947C47.1947 14.103 47.3153 14.103 47.3756 14.103H54.2665V0.256836H51.296ZM51.2658 11.9542H48.5366V7.00589H51.2658V11.9542Z" fill="white"/>
<path d="M88.7204 26.8447V30.1436H88.0117V26.8447H88.7204Z" fill="white"/>
<path d="M91.796 29.9918C91.5849 30.0674 91.1627 30.1734 90.7556 30.1734C90.1826 30.1734 89.7755 30.022 89.489 29.7194C89.2025 29.4319 89.0366 29.0082 89.0517 28.5239C89.0517 27.4193 89.8057 26.7988 90.8461 26.7988C91.2532 26.7988 91.5548 26.8896 91.7206 26.9653L91.5698 27.5706C91.404 27.4949 91.1929 27.4344 90.8461 27.4344C90.258 27.4344 89.8057 27.7824 89.8057 28.5088C89.8057 29.2351 90.2128 29.5983 90.7858 29.5983C90.9516 29.5983 91.0722 29.5832 91.1326 29.5529V28.8568H90.65V28.2667H91.8111V30.0069L91.796 29.9918Z" fill="white"/>
<path d="M92.9118 26.8447V28.1158H94.0729V26.8447H94.7815V30.1436H94.0729V28.7665H92.9118V30.1436H92.2031V26.8447H92.9118Z" fill="white"/>
<path d="M96.652 27.4652H95.8076V26.8447H98.2051V27.4652H97.3456V30.1436H96.6369V27.4652H96.652Z" fill="white"/>
<path d="M100.316 28.7363H99.1696V29.5232H100.451V30.1436H98.4609V26.8447H100.391V27.45H99.1696V28.131H100.316V28.7363Z" fill="white"/>
<path d="M102.652 28.7363H101.507V29.5232H102.788V30.1436H100.798V26.8447H102.728V27.45H101.507V28.131H102.652V28.7363Z" fill="white"/>
<path d="M103.12 30.1436V26.8447H103.949L104.598 28.0553C104.779 28.4034 104.975 28.8119 105.11 29.1903C105.065 28.7514 105.05 28.3126 105.05 27.8132V26.8447H105.699V30.1436H104.96L104.296 28.8725C104.115 28.5244 103.904 28.0856 103.753 27.7073C103.769 28.1461 103.784 28.6152 103.784 29.16V30.1587H103.135L103.12 30.1436Z" fill="white"/>
<path d="M109.273 30.0528C109.137 30.1133 108.851 30.189 108.474 30.189C107.388 30.189 106.83 29.4777 106.83 28.5395C106.83 27.4197 107.584 26.7842 108.534 26.7842C108.896 26.7842 109.182 26.8598 109.303 26.9355L109.152 27.5257C109.001 27.4651 108.805 27.4046 108.564 27.4046C108.006 27.4046 107.569 27.7678 107.569 28.4941C107.569 29.16 107.946 29.5685 108.579 29.5685C108.79 29.5685 109.032 29.5231 109.167 29.4626L109.273 30.0528Z" fill="white"/>
<path d="M111.444 28.7363H110.298V29.5232H111.579V30.1436H109.589V26.8447H111.519V27.45H110.298V28.131H111.444V28.7363Z" fill="white"/>
<path d="M111.926 30.1436V26.8447H112.755L113.403 28.0553C113.584 28.4034 113.78 28.8119 113.916 29.1903C113.871 28.7514 113.856 28.3126 113.856 27.8132V26.8447H114.504V30.1436H113.765L113.102 28.8725C112.921 28.5244 112.71 28.0856 112.559 27.7073C112.574 28.1461 112.589 28.6152 112.589 29.16V30.1587H111.941L111.926 30.1436Z" fill="white"/>
<path d="M115.59 27.4652H114.746V26.8447H117.144V27.4652H116.284V30.1436H115.575V27.4652H115.59Z" fill="white"/>
<path d="M119.239 28.7363H118.093V29.5232H119.375V30.1436H117.385V26.8447H119.315V27.45H118.093V28.131H119.239V28.7363Z" fill="white"/>
<path d="M119.707 26.8745C119.933 26.8291 120.28 26.7988 120.642 26.7988C121.109 26.7988 121.426 26.8745 121.652 27.0561C121.833 27.2074 121.939 27.4495 121.939 27.7522C121.939 28.1759 121.652 28.4634 121.381 28.5693C121.592 28.6752 121.712 28.9022 121.803 29.2049C121.893 29.5832 121.999 30.0069 122.059 30.1431H121.336C121.29 30.0523 121.215 29.7799 121.124 29.3713C121.034 28.9628 120.898 28.8417 120.627 28.8417H120.416V30.1431H119.722V26.8896L119.707 26.8745ZM120.416 28.2969H120.687C121.034 28.2969 121.245 28.1153 121.245 27.8278C121.245 27.5252 121.049 27.3739 120.732 27.3739C120.567 27.3739 120.461 27.389 120.416 27.4041V28.3121V28.2969Z" fill="white"/>
<path d="M86.8057 22.6074C86.9565 22.668 87.0772 22.6982 87.1375 22.6982L87.243 22.9857L87.1224 23.2127L86.7454 24.0753V24.1812L86.5946 24.2417V24.3174H86.4891C86.4891 24.3174 86.5494 24.4687 86.5645 24.62H86.4891L86.474 24.9681L86.3534 25.1194L86.3232 25.3313H86.2478L86.2629 25.528L86.2177 25.649V25.8458L86.1724 25.8912V26.0727L86.0971 26.2543L86.6851 26.3451L86.7304 26.3905L87.0018 26.3603C87.0018 26.3603 87.1073 26.3451 87.1375 26.3149L87.2732 26.2241L87.4843 26.2543L87.7406 26.1181C87.9216 26.0727 88.0723 26.0122 88.1779 25.9668L88.4191 26.0122V26.4057L88.2382 26.678V26.7688H88.0874L87.9668 26.784H87.816L87.6652 26.8445L87.5898 26.784L87.4843 26.9202L87.1073 26.9958L86.8811 27.1169H86.6248L86.3383 27.1925V27.1471L86.1423 27.1925L86.0217 27.3893V28.1459L85.9613 28.2215L86.0367 28.4031L86.0066 28.615L86.0518 28.7966V28.9782L86.1724 29.0538H86.4288L86.6248 29.0992L86.655 29.2959L86.474 29.4473L86.4439 29.5986L86.2478 29.871L86.2026 30.0374L86.0518 30.1585L86.0066 30.3098L85.6145 30.5519C85.5693 30.6276 85.5241 30.6881 85.4939 30.7184C85.4638 30.7487 85.4185 30.7789 85.3733 30.8092L85.3281 30.8546L84.9812 30.9756V30.7789L85.132 30.7033L85.1773 30.5519L85.2225 30.5065L85.2677 30.3855L85.117 30.2493L85.2376 29.6894V29.6137L85.2527 29.4473L85.2074 29.3413L85.3281 28.9933L85.2527 28.6604L85.2828 28.5696V27.8281L85.3281 27.6162V27.5709L85.313 27.4801L85.1923 27.2833V27.1623L84.9662 27.132V27.2833L84.6495 27.2379H84.559L84.2575 27.359V27.4347L83.9559 27.4801L83.8051 27.4347V27.4801L83.6845 27.4498L83.3377 27.5103L82.7949 27.7222L82.7346 27.8281V28.6301L82.6592 28.7814L83.0512 28.9328V29.2505L82.9758 29.3262L82.9306 29.5381V29.7651L83.006 29.8104C82.9758 29.9012 82.9306 29.9769 82.8853 30.0223H82.7346V30.098L82.6592 30.1585C82.6592 30.1585 82.5988 30.2493 82.5235 30.3703H82.4782L82.3576 30.4914L82.0862 30.4309H81.9354L81.8148 30.3401L81.8449 30.2342C81.8449 30.2342 81.8902 30.1585 81.9656 30.0828V29.8407L81.9354 29.6743L81.9806 29.3413V29.1446L82.0259 28.8722V28.615V28.5999V28.4485L82.1013 28.2821V28.1761L82.0259 28.0551L82.1013 27.7827L81.9806 27.6616H81.8148L81.7394 27.7373L81.664 27.6768C81.664 27.6768 81.5434 27.7373 81.4378 27.7524L81.3323 27.8584L80.6839 27.9794H80.6236L80.5482 28.0854L80.3522 27.9794L80.1863 28.0551L80.126 27.9492L80.1863 27.813L80.126 27.7524L80.2014 27.4044L80.3823 27.3287L80.4275 27.2682L80.7744 27.1925L80.9553 27.2379L81.0156 27.2833L81.2267 27.1925H81.4227H81.5735L81.7243 27.2379L81.7695 27.1623H81.8449H81.8902L81.9957 27.1169C81.9957 27.1169 82.1013 27.1774 82.252 27.1925L82.3274 27.0563L82.2822 26.6932C82.3727 26.5721 82.433 26.4662 82.4631 26.3754H82.3877L82.4933 26.1938L82.3877 25.8609L82.4631 25.4826L82.4179 25.0891L82.4933 24.9832L82.4631 24.9075L82.5385 24.726L82.4933 24.393H82.2973C82.2973 24.393 82.1917 24.4233 82.1314 24.4687C82.0711 24.499 82.0108 24.5444 81.9656 24.62L81.8751 24.5898L81.7846 24.6806C81.7846 24.6806 81.7092 24.7411 81.664 24.7562L81.4981 24.8016L81.5434 25.0135L81.4378 25.2707V25.1194C81.3172 25.1951 81.2267 25.2859 81.1513 25.3767L81.0759 25.3161L80.8799 25.3767V25.4372L80.6839 25.5431V25.6188L80.3672 25.528L80.2466 25.3918V25.1799L80.3371 24.9075L80.5934 24.6352L80.7894 24.5595L80.9251 24.4687C80.9251 24.4687 81.0608 24.393 81.1815 24.3476L81.2418 24.272L81.4529 24.2266L81.4981 24.1509H81.6187L81.8449 23.9693H82.0108L82.056 23.8937H82.2822L82.4782 23.7878C82.4782 23.7878 82.5536 23.7272 82.6139 23.6364H82.7346C82.7346 23.6364 82.8401 23.591 82.9155 23.5456V23.4397L83.0814 23.4246L83.1567 23.3338H83.2321L83.3829 23.1522L83.6543 23.0614H83.9107C83.9861 23.1825 84.0765 23.2732 84.167 23.3489V23.6062L84.1067 23.7121L83.8353 23.7575L83.79 23.9845L83.6543 24.4384L83.5488 24.9075V25.0589L83.4583 25.1648V25.3464L83.4131 25.4372L83.2321 26.2543L83.1266 26.3905V26.6629L83.1718 26.7537H83.3679L83.6091 26.7991L83.8654 26.7537L84.4233 26.7083H84.559L84.6043 26.7537L84.9511 26.678L85.0114 26.6326H85.2074L85.4185 26.678L85.5693 26.5872L85.5241 26.2997L85.6447 26.1181L85.5844 25.9517L85.6598 25.6944V25.4523L85.6899 25.2859L85.6447 25.1345L85.6899 24.9983C85.6899 24.9983 85.7503 24.8924 85.8106 24.8319L85.705 24.6957L85.8256 24.4082V24.2266L85.7653 23.9693L85.8256 23.8937L85.7653 23.818L85.9161 23.5456H85.9613L85.9915 23.2581L86.0669 23.2127L86.1121 23.1068L86.2629 23.0463L86.5645 22.8041H86.7304L86.8057 22.6226V22.6074Z" fill="white"/>
</g>
<defs>
<clipPath id="clip0_299_7619">
<rect width="123" height="36" fill="white"/>
</clipPath>
</defs>
</svg>
