<svg width="137" height="47" viewBox="0 0 137 47" fill="none" xmlns="http://www.w3.org/2000/svg">
<g clip-path="url(#clip0_912_31193)">
<path d="M23.1044 32.6332H19.199V18.2321H16.9624V32.6332H13.1602V7.45703H16.9624V15.3417H19.199V7.45703H23.1044V32.6332Z" fill="white"/>
<path d="M61.0432 26.7494C60.6991 26.852 60.1486 26.852 59.5808 26.852C58.7894 26.852 58.1184 26.7494 57.5507 26.4073C57.1034 26.0653 56.5356 25.6206 55.9679 24.9536C54.8496 23.4998 53.7141 22.1486 52.699 20.8145C51.5807 21.6013 51.013 22.2683 51.013 23.1577C51.013 24.2694 51.6839 24.9536 53.1463 24.9536H55.056V26.7494C54.3851 26.852 53.5936 26.852 52.5786 26.852C49.6538 26.852 48.1914 25.7232 48.1914 23.2774C48.1914 21.721 49.2065 20.3699 51.2194 19.1384C50.7721 18.574 50.428 18.0267 50.2043 17.6846C49.8602 17.0176 49.6366 16.3506 49.6366 15.7862C49.6366 14.5547 50.2043 13.768 51.2022 13.2207C51.9936 12.776 52.8883 12.6562 53.9033 12.6562C55.0388 12.6562 55.813 12.776 56.484 13.1009C57.6023 13.6653 58.1701 14.5547 58.1701 15.8888C58.1701 17.0005 57.6023 17.907 56.484 18.7964C56.2604 19.0187 55.6926 19.3608 55.0216 19.6857C55.9163 20.7974 56.8281 22.0289 57.9464 23.2603C58.841 24.3891 59.7529 24.9365 60.7679 24.9365H60.9916V26.7323L61.0432 26.7494ZM55.4345 16.0085C55.4345 14.9994 54.9872 14.5547 53.9721 14.5547C52.9571 14.5547 52.5098 14.9994 52.5098 15.9059C52.5098 16.248 52.613 16.6926 52.9571 17.1373C53.1807 17.4794 53.4044 17.8044 53.6281 18.1464C54.0754 17.8044 54.4195 17.7017 54.6431 17.4794C55.1937 17.1373 55.4345 16.5729 55.4345 16.0256" fill="white"/>
<path d="M83.32 25.3301H79.3801V10.8435H77.1263V25.3301H73.4102V0H77.1263V7.93595H79.3801V0H83.32V25.3301Z" fill="white"/>
<path d="M44.5555 19.2407C44.5555 21.4642 43.7641 23.2429 42.0952 24.577C40.5296 25.911 38.3962 26.5781 35.8328 26.5781C33.2693 26.5781 31.2391 25.911 29.5703 24.577C28.0047 23.2429 27.2305 21.4642 27.2305 19.2407C27.2305 17.0173 28.0047 15.1359 29.5703 13.8019C31.2391 12.4678 33.3725 11.8008 35.8328 11.8008C38.293 11.8008 40.5296 12.4678 42.0952 13.8019C43.7641 15.1359 44.5555 17.0344 44.5555 19.2407ZM40.3059 19.2407C40.3059 18.0264 39.8586 17.0173 39.0844 16.1279C38.3102 15.3583 37.1919 14.9136 35.85 14.9136C34.6112 14.9136 33.5101 15.3583 32.7187 16.1279C31.9273 17.0173 31.48 18.0093 31.48 19.2407C31.48 20.4722 31.9273 21.4642 32.7187 22.2338C33.4929 23.0035 34.6112 23.4653 35.85 23.4653C37.1919 23.4653 38.3102 23.0206 39.0844 22.2338C39.8758 21.4642 40.3059 20.4551 40.3059 19.2407Z" fill="white"/>
<path d="M32.9457 46.9988H38.864V32.632H52.6105V28.7324H19.1992V32.632H32.9457V46.9988Z" fill="white"/>
<path d="M104.467 12.7422C104.467 14.9827 103.676 16.7614 102.11 18.1126C100.424 19.4638 98.3941 20.2334 95.8134 20.2334C93.2327 20.2334 91.0821 19.4467 89.5165 18.1126C87.8305 16.7786 87.0391 14.9827 87.0391 12.7422C87.0391 10.5016 87.8305 8.70577 89.5165 7.37171C91.0993 6.02055 93.2327 5.35352 95.8134 5.35352C98.3941 5.35352 100.424 6.02055 102.11 7.37171C103.676 8.70577 104.467 10.5016 104.467 12.7422ZM100.183 12.7422C100.183 11.5107 99.736 10.5016 98.9446 9.71487C98.1532 8.92811 97.0177 8.48343 95.7962 8.48343C94.437 8.48343 93.3187 8.92811 92.5273 9.71487C91.7359 10.5016 91.2886 11.5107 91.2886 12.7422C91.2886 13.9736 91.7359 14.9827 92.5273 15.7524C93.3187 16.6417 94.437 16.9838 95.7962 16.9838C97.0349 16.9838 98.1532 16.6417 98.9446 15.7524C99.736 14.9656 100.183 13.9565 100.183 12.7422Z" fill="white"/>
<path d="M137 22.4219H83.2188V25.3294H93.5587V34.1377H97.9459V25.3294H137V22.4219Z" fill="white"/>
<path d="M86.8984 33.9668V46.9482H104.602V33.9668H86.8984ZM100.163 44.0236H91.2856V36.7546H100.163V44.0236Z" fill="white"/>
<path d="M7.60442 7.67969V13.683H4.02587V7.67969H0V22.8161V25.6895H2.21939C2.21939 25.6895 2.37423 25.6895 2.46025 25.6895H11.5099V7.67969H7.60442ZM7.5356 22.9017H3.95705V16.4537H7.5356V22.9017Z" fill="white"/>
<path d="M67.7013 0.341797V6.37928H64.1056V0.341797H60.0625V15.5638V18.4542H62.2991C62.2991 18.4542 62.4539 18.4542 62.54 18.4542H71.6412V0.341797H67.7013ZM67.6325 15.6493H64.0368V9.16712H67.6325V15.6493Z" fill="white"/>
<path d="M115.701 38.5339H112.793V40.3981H116.045V41.8519H111.004V33.9844H115.873V35.4382H112.776V37.0801H115.684V38.5339H115.701Z" fill="white"/>
<path d="M116.766 40.5007V33.9844H118.503L119.862 36.3788C120.258 37.063 120.637 37.8839 120.929 38.6194H120.946C120.86 37.7642 120.826 36.8748 120.826 35.8999V34.0015H122.185V40.5179H120.637L119.243 38.0037C118.847 37.3024 118.417 36.4644 118.108 35.6947H118.073C118.125 36.567 118.142 37.4906 118.142 38.551V40.5179H116.783L116.766 40.5007Z" fill="white"/>
<path d="M130 38.8422C129.965 37.9015 129.931 36.7556 129.931 35.6097H129.914C129.656 36.6188 129.329 37.7305 129.019 38.6541L128.056 41.7327H126.662L125.819 38.6883C125.561 37.7476 125.303 36.6359 125.096 35.6097H125.079C125.045 36.6701 124.993 37.8844 124.959 38.8764L124.804 41.8695H123.152L123.651 34.002H126.043L126.817 36.6359C127.075 37.5423 127.316 38.5343 127.488 39.4579H127.54C127.746 38.5514 128.021 37.5081 128.297 36.6359L129.122 34.0191H131.479L131.909 41.8866H130.172L130.051 38.8764L130 38.8422Z" fill="white"/>
</g>
<defs>
<clipPath id="clip0_912_31193">
<rect width="137" height="47" fill="white"/>
</clipPath>
</defs>
</svg>
