<svg width="115" height="36" viewBox="0 0 115 36" fill="none" xmlns="http://www.w3.org/2000/svg">
<g clip-path="url(#clip0_299_7646)">
<path fill-rule="evenodd" clip-rule="evenodd" d="M18.205 24.9464H15.228V13.8924H13.5349V24.9464H10.6426V5.60547H13.5349V11.6646H15.228V5.60547H18.205V24.9464Z" fill="white"/>
<path fill-rule="evenodd" clip-rule="evenodd" d="M46.748 20.4333C46.4941 20.5184 46.0708 20.5184 45.6476 20.5184C45.055 20.5184 44.5471 20.4333 44.1238 20.1779C43.7852 19.9224 43.3619 19.5819 42.9386 19.071C42.0921 17.9642 41.2456 16.9284 40.4837 15.9067C39.6372 16.5027 39.2139 17.0135 39.2139 17.7088C39.2139 18.5602 39.7218 19.071 40.8223 19.071H42.2614V20.4333C41.7535 20.5184 41.1609 20.5184 40.3849 20.5184C38.1698 20.5184 37.0693 19.667 37.0693 17.7798C37.0693 16.5878 37.8312 15.5661 39.355 14.6154C39.0164 14.1897 38.7624 13.764 38.5931 13.5086C38.3391 12.9977 38.1698 12.4869 38.1698 12.0612C38.1698 11.1247 38.5931 10.5287 39.355 10.0888C39.9476 9.74823 40.6248 9.66309 41.4008 9.66309C42.2473 9.66309 42.854 9.74823 43.3478 10.0036C44.1943 10.4293 44.6176 11.1105 44.6176 12.1463C44.6176 12.9977 44.1943 13.6789 43.3478 14.36C43.1785 14.5303 42.7552 14.7857 42.2473 15.0411C42.9245 15.8925 43.6018 16.8432 44.4483 17.7798C45.1255 18.6312 45.8028 19.0569 46.5787 19.0569H46.748V20.4191V20.4333ZM42.5013 12.2315C42.5013 11.4652 42.1627 11.1247 41.4008 11.1247C40.6389 11.1247 40.3003 11.4652 40.3003 12.1463C40.3003 12.4018 40.3849 12.7423 40.6389 13.0829C40.8082 13.3383 40.9775 13.5937 41.1468 13.8491C41.4854 13.5937 41.7394 13.5086 41.9087 13.3383C42.332 13.0829 42.5013 12.6572 42.5013 12.2173" fill="white"/>
<path fill-rule="evenodd" clip-rule="evenodd" d="M63.5651 19.3551H60.5881V8.28695H58.8809V19.3551H56.0732V0H58.8809V6.05913H60.5881V0H63.5651V19.3551Z" fill="white"/>
<path fill-rule="evenodd" clip-rule="evenodd" d="M34.5157 14.6585C34.5157 16.3755 33.9231 17.7378 32.6533 18.7594C31.4541 19.7811 29.8457 20.292 27.8986 20.292C25.9516 20.292 24.4137 19.7811 23.1439 18.7594C21.9588 17.7378 21.3662 16.3613 21.3662 14.6585C21.3662 12.9557 21.9588 11.4942 23.1439 10.4725C24.4137 9.45081 26.0363 8.92578 27.8986 8.92578C29.761 8.92578 31.4682 9.43662 32.6533 10.4725C33.9231 11.4942 34.5157 12.9557 34.5157 14.6585ZM31.2848 14.6585C31.2848 13.722 30.9462 12.9557 30.3536 12.2604C29.761 11.6644 28.9145 11.3239 27.8845 11.3239C26.9533 11.3239 26.1068 11.6644 25.5142 12.2604C24.9217 12.9415 24.583 13.7078 24.583 14.6585C24.583 15.6093 24.9217 16.3755 25.5142 16.9715C26.1068 17.5675 26.9533 17.908 27.8845 17.908C28.9004 17.908 29.7469 17.5675 30.3536 16.9715C30.9462 16.3755 31.2848 15.6093 31.2848 14.6585Z" fill="white"/>
<path fill-rule="evenodd" clip-rule="evenodd" d="M25.6691 36.0007H30.184V24.9467H40.6246V21.9668H15.2285V24.9467H25.6691V36.0007Z" fill="white"/>
<path fill-rule="evenodd" clip-rule="evenodd" d="M79.5362 9.73401C79.5362 11.4368 78.9437 12.8132 77.7585 13.8349C76.4887 14.8566 74.9508 15.4668 73.0038 15.4668C71.0568 15.4668 69.4342 14.8708 68.2491 13.8349C66.9793 12.8132 66.3867 11.451 66.3867 9.73401C66.3867 8.01702 66.9793 6.65478 68.2491 5.6331C69.4342 4.61143 71.0568 4.10059 73.0038 4.10059C74.9508 4.10059 76.4887 4.61143 77.7585 5.6331C78.9437 6.65478 79.5362 8.03121 79.5362 9.73401ZM76.3053 9.73401C76.3053 8.79747 75.9667 8.03121 75.3741 7.42104C74.7815 6.82506 73.9209 6.4845 72.9897 6.4845C71.9738 6.4845 71.1132 6.82506 70.5206 7.42104C69.9281 8.01702 69.5894 8.78328 69.5894 9.73401C69.5894 10.6847 69.9281 11.4368 70.5206 12.0328C71.1132 12.7139 71.9738 12.9693 72.9897 12.9693C73.9209 12.9693 74.7674 12.7139 75.3741 12.0328C75.9667 11.4368 76.3053 10.6706 76.3053 9.73401Z" fill="white"/>
<path fill-rule="evenodd" clip-rule="evenodd" d="M114.343 17.127H63.4805V19.3548H71.2968V26.0808H74.6124V19.3548H114.343V17.127Z" fill="white"/>
<path d="M66.2598 25.9531V35.8719H79.635V25.9531H66.2598ZM76.2771 33.6441H69.5613V28.0958H76.2771V33.6441Z" fill="white"/>
<path d="M6.41019 5.77539V10.3871H3.68717V5.77539H0.639648V17.4112V19.6106H2.33272C2.33272 19.6106 2.4597 19.6106 2.51613 19.6106H9.40128V5.77539H6.4243H6.41019ZM6.36787 17.4821H3.64485V12.5298H6.36787V17.4821Z" fill="white"/>
<path d="M51.7563 0.255859V4.86761H49.0333V0.255859H45.9717V11.8916V14.0911H47.6647C47.6647 14.0911 47.7917 14.0911 47.8482 14.0911H54.7192V0.255859H51.7422H51.7563ZM51.714 11.9626H48.991V7.01029H51.714V11.9626Z" fill="white"/>
<path d="M88.8772 26.082V29.9417H88.0166V26.082H88.8772Z" fill="white"/>
<path d="M89.3428 26.1389C89.6673 26.0821 90.0764 26.0537 90.5138 26.0537C91.2475 26.0537 91.7272 26.1956 92.094 26.4652C92.4891 26.7632 92.743 27.2315 92.743 27.9126C92.743 28.6505 92.475 29.1613 92.1081 29.4735C91.699 29.8141 91.0782 29.9701 90.3304 29.9701C89.8789 29.9701 89.5544 29.9418 89.3428 29.9134V26.1389ZM90.2034 29.2748C90.274 29.289 90.4009 29.289 90.4997 29.289C91.2898 29.289 91.8118 28.8633 91.8118 27.941C91.8118 27.1463 91.3462 26.7206 90.5985 26.7206C90.415 26.7206 90.274 26.7348 90.2034 26.749V29.2748Z" fill="white"/>
<path d="M93.0393 29.0473C93.2651 29.175 93.6319 29.2886 93.9987 29.2886C94.3938 29.2886 94.6054 29.1183 94.6054 28.8771C94.6054 28.6358 94.422 28.4939 93.9564 28.3378C93.3215 28.1108 92.8982 27.7561 92.8982 27.1885C92.8982 26.5357 93.4485 26.0391 94.3514 26.0391C94.7888 26.0391 95.0992 26.1242 95.325 26.2377L95.1274 26.933C94.9864 26.8621 94.7042 26.7486 94.3373 26.7486C93.9705 26.7486 93.773 26.933 93.773 27.1175C93.773 27.3587 93.9846 27.4723 94.4784 27.6567C95.1557 27.9121 95.4661 28.2669 95.4661 28.8061C95.4661 29.4588 94.9722 29.9981 93.9282 29.9981C93.4908 29.9981 93.0534 29.8845 92.8418 29.7568L93.0111 29.0473H93.0393Z" fill="white"/>
<path d="M99.4731 29.842C99.3179 29.9129 98.951 30.0123 98.4996 30.0123C97.1733 30.0123 96.4961 29.1751 96.4961 28.0824C96.4961 26.7628 97.4273 26.0391 98.5842 26.0391C99.0357 26.0391 99.3743 26.1242 99.5295 26.2093L99.3461 26.8905C99.1768 26.8195 98.9369 26.7486 98.6124 26.7486C97.9352 26.7486 97.3991 27.1601 97.3991 28.0257C97.3991 28.7919 97.8505 29.2886 98.6265 29.2886C98.8946 29.2886 99.1768 29.2318 99.3602 29.1609L99.4872 29.842H99.4731Z" fill="white"/>
<path d="M102.041 28.3099H100.63V29.2322H102.21V29.9417H99.7695V26.082H102.126V26.7915H100.63V27.5862H102.041V28.2957V28.3099Z" fill="white"/>
<path d="M102.52 29.9417V26.082H103.536L104.326 27.501C104.552 27.9125 104.778 28.3808 104.947 28.8207C104.891 28.3099 104.877 27.7848 104.877 27.203V26.082H105.667V29.9417H104.75L103.931 28.4518C103.706 28.0402 103.452 27.5436 103.268 27.0895H103.24C103.268 27.6004 103.282 28.1538 103.282 28.7781V29.9417H102.492H102.52Z" fill="white"/>
<path d="M106.909 26.8199H105.879V26.082H108.828V26.8199H107.784V29.9417H106.923V26.8199H106.909Z" fill="white"/>
<path d="M111.268 28.3099H109.857V29.2322H111.437V29.9417H108.996V26.082H111.352V26.7915H109.857V27.5862H111.268V28.2957V28.3099Z" fill="white"/>
<path d="M111.734 26.1389C112.016 26.0963 112.425 26.0537 112.891 26.0537C113.455 26.0537 113.864 26.1388 114.132 26.3517C114.358 26.5362 114.485 26.8058 114.485 27.1605C114.485 27.643 114.146 27.9835 113.808 28.1113C114.076 28.239 114.217 28.4944 114.316 28.8491C114.443 29.289 114.542 29.7857 114.626 29.9418H113.737C113.681 29.8282 113.582 29.5161 113.469 29.0478C113.356 28.5653 113.201 28.4376 112.834 28.4376H112.58V29.956H111.72V26.153L111.734 26.1389ZM112.594 27.7991H112.933C113.37 27.7991 113.624 27.5862 113.624 27.2457C113.624 26.9051 113.385 26.7064 112.99 26.7064C112.778 26.7064 112.665 26.7064 112.594 26.7348V27.7991Z" fill="white"/>
<path d="M86.6619 22.7324H86.7607L86.8876 22.8601L86.8594 23.0162L87.0287 23.1156H86.8594L86.4644 23.4135C86.3374 23.4845 86.1681 23.5696 85.9706 23.6832L85.9423 23.7683H85.7307L85.6037 23.9669L85.3921 24.0947L85.3498 24.1372C85.2369 24.194 85.1522 24.2366 85.0958 24.2791C85.0394 24.3217 84.9829 24.3785 84.9265 24.4778H84.8277C84.7713 24.5629 84.729 24.6197 84.6866 24.6481L84.6161 24.8183L84.4186 24.9035L84.2493 25.017C84.2493 25.017 84.1364 25.088 84.0659 25.1021L83.9671 25.2866L83.7131 25.4143L83.6285 25.5846L83.6849 25.6556L83.4168 25.9535L83.5156 26.0954L83.4592 26.3083L83.4874 26.4786C83.5438 26.6347 83.572 26.8049 83.5861 26.961L83.5297 26.9894V27.0604L83.6003 27.0036L83.7555 27.3016L83.8542 27.5286L83.9812 27.6138V27.6563L84.1787 27.7699L84.2916 27.9401C84.2916 27.9401 84.4045 28.0679 84.5032 28.1672L84.7008 28.2665C84.7008 28.2665 84.7854 28.3091 84.9124 28.3375L84.9406 28.38L85.1522 28.451C85.251 28.5361 85.3074 28.5787 85.3215 28.5787L86.0411 28.6071H86.1822L86.4079 28.6213H86.3515L86.549 28.6071L86.5208 28.5503L86.7465 28.5219V28.4368H87.0287L86.9441 28.3658V28.1956L86.9723 27.9969V28.0253L87.2545 27.7273L87.325 27.7557C87.4097 27.7557 87.4802 27.7273 87.5225 27.6989L87.4661 27.6422L87.5225 27.5144L87.6918 27.4861L87.7765 27.3584H87.8329L87.9035 27.5286L87.8611 27.6847L87.8894 27.7415L87.8329 27.855L87.8894 27.926L87.8188 27.9543C87.7624 28.0395 87.7342 28.1104 87.7201 28.1672L87.6354 28.2523L87.6918 28.2807L87.6354 28.3375L87.4943 28.6496L87.452 28.678V28.7915L87.3532 28.8909L87.2686 28.9334C87.2686 28.9334 87.198 28.9902 87.1557 29.0612L86.9864 29.0895V29.1321L86.8735 29.1605L86.7748 29.2882L86.1963 29.4159H85.9141L85.7307 29.3733L85.5191 29.4159L85.2651 29.3166L84.8983 29.3875L84.4327 29.2172L84.4045 29.1321L84.1082 29.1889L83.8965 29.0895C83.8965 29.0895 83.8119 29.0186 83.7272 28.9193L83.5015 28.8625L83.4592 28.749C83.4592 28.749 83.3886 28.6355 83.2758 28.5219L83.1488 28.4936L83.0077 28.2949V28.153L82.8525 28.082V27.9543L82.7537 27.9118L82.7819 27.855L82.6408 27.7131L82.6126 27.5428L82.4715 27.1739L82.4433 27.0887C82.4433 27.0887 82.401 27.0036 82.3446 26.9327L82.1329 26.8617L82.0201 26.9894L81.9918 27.1597C81.9918 27.1597 81.9636 27.2874 81.9354 27.33L81.8084 27.5286V27.7699L81.7379 27.8834L81.7943 27.9969L81.6956 28.0395L81.7379 28.153L81.6956 28.4084L81.7379 28.4652L81.6956 28.5503L81.7379 28.6922L81.6956 28.8199L81.6673 29.2314V29.345C81.6673 29.345 81.7238 29.4585 81.7943 29.572L81.7238 30.0403L81.6673 30.097V30.1396L81.5262 30.2105L81.3711 30.3808C81.2159 30.4518 81.1171 30.5227 81.0748 30.5511L80.9055 30.4518L81.0042 30.2531L80.9196 30.1538L80.9619 29.9977L80.8067 29.8842L80.8772 29.7281V29.6146C80.8913 29.4869 80.9055 29.3875 80.9196 29.3308L80.9478 29.1747C80.9478 29.1747 80.9901 29.047 81.0607 28.9334L81.0042 28.7915L81.0607 28.5645L81.1312 28.0537L81.2159 27.7982V27.7415L81.2723 27.5003L81.3005 27.2306L81.3569 27.1313C81.371 26.9752 81.3993 26.8759 81.4275 26.8475L81.3993 26.7766L81.5545 26.1096V25.84L81.625 25.7833V25.613L81.6673 25.4427L81.625 25.2441L81.498 25.1731V25.0312L81.6673 24.8609L81.6956 24.6339L81.6532 24.421L81.7379 24.2508V24.123L81.6532 24.0237L81.3287 23.8676C81.2017 23.9244 81.0465 23.9811 80.8913 24.0237C80.722 24.0663 80.6374 24.0947 80.6233 24.0947L80.454 24.0663L80.2423 24.1656L79.7344 24.2649V24.3785C79.7344 24.3785 79.7908 24.492 79.8473 24.5913H80.0025L80.1295 24.8042L79.9178 24.9602V25.017L79.7626 25.1589H79.6074C79.6074 25.1589 79.4522 25.2299 79.2688 25.315L79.2124 25.2582H79.0713L78.9584 25.5137L78.8597 25.4001L78.8879 25.2441L78.7327 25.1731V25.0454L78.6057 24.9886L78.5352 24.8751C78.5634 24.6765 78.5916 24.5204 78.6339 24.4068L78.7327 24.4352L78.8879 24.2224H78.9302L78.9584 24.1372H79.029L79.0995 24.0521C79.0995 24.0521 79.1983 23.9811 79.3253 23.9102V23.8392L79.4663 23.8109L79.5792 23.6832L79.7062 23.6548L79.7344 23.5838L79.9037 23.5554L80.0166 23.4419H80.1718L80.3411 23.3994L80.4399 23.3L80.5951 23.3284L81.0607 23.2433L81.3005 23.1439L81.5545 23.1014L81.7097 23.0446H81.9213L82.2599 23.002L82.4715 22.9027L82.528 22.8318L82.6973 22.8034L82.6691 22.7608L83.05 22.7324L83.1911 22.9737L83.0782 23.1014L83.05 23.2149L82.8384 23.4987L82.8666 23.6122C82.7114 24.0521 82.6408 24.3217 82.6408 24.3927L82.6691 24.4636L82.6126 24.6339H82.5562L82.5844 24.6906L82.5562 24.8042L82.5844 24.8325C82.5844 24.8325 82.5139 24.9602 82.4433 25.1589L82.5421 25.2582L82.401 25.6697L82.4715 25.6981L82.6832 25.6414V25.5988L82.8102 25.542L82.8807 25.4143H83.1488V25.2866L83.3463 25.2299L83.6567 25.0028L83.8119 24.9319L83.9671 24.7616C83.9671 24.7616 84.0376 24.719 84.1082 24.6906L84.1646 24.5913C84.1646 24.5913 84.2493 24.492 84.3762 24.3785L84.9406 24.0663C84.9406 24.0663 85.0253 23.9244 85.0676 23.8109L85.4485 23.5696L85.5755 23.4135L86.027 23.0872L86.0975 23.0588C86.1963 22.9878 86.2527 22.9311 86.2951 22.9169L86.3938 22.9595L86.6619 22.7608V22.7324Z" fill="white"/>
</g>
<defs>
<clipPath id="clip0_299_7646">
<rect width="115" height="36.0007" fill="white"/>
</clipPath>
</defs>
</svg>
