<svg width="119" height="36" viewBox="0 0 119 36" fill="none" xmlns="http://www.w3.org/2000/svg">
<g clip-path="url(#clip0_299_7596)">
<path fill-rule="evenodd" clip-rule="evenodd" d="M17.6744 24.9538H14.693V13.8935H12.9935V24.9538H10.0986V5.59473H12.9935V11.667H14.693V5.59473H17.6744V24.9538Z" fill="white"/>
<path fill-rule="evenodd" clip-rule="evenodd" d="M46.2632 20.4293C46.004 20.516 45.5863 20.516 45.1542 20.516C44.5637 20.516 44.0452 20.4293 43.6276 20.169C43.2963 19.9088 42.8642 19.5763 42.4321 19.0558C41.5824 17.9425 40.7326 16.916 39.9693 15.8895C39.1196 16.4823 38.6875 17.0028 38.6875 17.6823C38.6875 18.5353 39.1916 19.0413 40.3006 19.0413H41.7552V20.4148C41.2511 20.5016 40.6462 20.5016 39.8829 20.5016C37.6793 20.5016 36.5703 19.6486 36.5703 17.769C36.5703 16.569 37.3336 15.557 38.8603 14.6028C38.5291 14.169 38.2698 13.7498 38.097 13.4895C37.8377 12.9835 37.6649 12.463 37.6649 12.0437C37.6649 11.104 38.097 10.5112 38.8603 10.0775C39.4508 9.73049 40.1421 9.6582 40.9055 9.6582C41.7552 9.6582 42.3601 9.74495 42.8642 10.0052C43.714 10.4245 44.146 11.1184 44.146 12.1449C44.146 12.998 43.714 13.6775 42.8642 14.3715C42.6914 14.5449 42.2737 14.8052 41.7552 15.051C42.4321 15.904 43.1091 16.8437 43.9588 17.7835C44.6357 18.6365 45.3127 19.0703 46.0904 19.0703H46.2632V20.4437V20.4293ZM42.0145 12.2317C42.0145 11.4654 41.6688 11.1184 40.9055 11.1184C40.1421 11.1184 39.7965 11.4654 39.7965 12.1449C39.7965 12.4052 39.8829 12.7377 40.1421 13.0847C40.315 13.345 40.4734 13.5907 40.6462 13.851C40.9919 13.5907 41.2511 13.504 41.4096 13.3449C41.8272 13.0847 42.0001 12.6654 42.0001 12.2317" fill="white"/>
<path fill-rule="evenodd" clip-rule="evenodd" d="M63.1143 19.3446H60.133V8.28434H58.4335V19.3446H55.625V0H58.4335V6.05783H60.133V0H63.1143V19.3446Z" fill="white"/>
<path fill-rule="evenodd" clip-rule="evenodd" d="M34.0062 14.6599C34.0062 16.3659 33.4157 17.7394 32.1339 18.7659C30.9385 19.7924 29.3254 20.2984 27.3666 20.2984C25.4079 20.2984 23.8668 19.7924 22.5994 18.7659C21.404 17.7394 20.8135 16.3659 20.8135 14.6599C20.8135 12.9538 21.404 11.4936 22.5994 10.4816C23.8668 9.45505 25.4943 8.93457 27.3666 8.93457C29.239 8.93457 30.9385 9.44059 32.1339 10.4816C33.4013 11.5081 34.0062 12.9538 34.0062 14.6599ZM30.78 14.6599C30.78 13.7201 30.4344 12.9538 29.8439 12.2743C29.2534 11.6816 28.4036 11.3346 27.381 11.3346C26.4449 11.3346 25.5951 11.6816 25.0046 12.2743C24.4141 12.9538 24.0685 13.7201 24.0685 14.6599C24.0685 15.5996 24.4141 16.3659 25.0046 16.9731C25.5951 17.5659 26.4449 17.9129 27.381 17.9129C28.4036 17.9129 29.2534 17.5659 29.8439 16.9731C30.4344 16.3804 30.78 15.5996 30.78 14.6599Z" fill="white"/>
<path fill-rule="evenodd" clip-rule="evenodd" d="M25.1486 35.9995H29.671V24.9537H40.1417V21.9609H14.6924V24.9537H25.1486V35.9995Z" fill="white"/>
<path fill-rule="evenodd" clip-rule="evenodd" d="M79.1009 9.745C79.1009 11.451 78.5104 12.8245 77.315 13.8366C76.0332 14.8631 74.5065 15.4558 72.5478 15.4558C70.589 15.4558 68.9759 14.8631 67.7805 13.8366C66.4987 12.8101 65.9082 11.451 65.9082 9.745C65.9082 8.03898 66.4987 6.66548 67.7805 5.63898C68.9759 4.61247 70.589 4.10645 72.5478 4.10645C74.5065 4.10645 76.0332 4.61247 77.315 5.63898C78.5104 6.66548 79.1009 8.03898 79.1009 9.745ZM75.8748 9.745C75.8748 8.80524 75.5435 8.03898 74.9386 7.4462C74.3337 6.83898 73.4839 6.50645 72.5622 6.50645C71.5396 6.50645 70.6898 6.83898 70.0849 7.4462C69.4944 8.03898 69.1488 8.8197 69.1488 9.745C69.1488 10.6703 69.4944 11.451 70.0849 12.0438C70.6754 12.7233 71.5396 12.9836 72.5622 12.9836C73.4983 12.9836 74.3481 12.7233 74.9386 12.0438C75.5291 11.451 75.8748 10.6703 75.8748 9.745Z" fill="white"/>
<path fill-rule="evenodd" clip-rule="evenodd" d="M117.915 17.1328H63.0273V19.3449H70.8623V26.0822H74.1749V19.3449H117.915V17.1328Z" fill="white"/>
<path d="M65.8076 25.9521V35.8702H79.202V25.9521H65.8076ZM75.8606 33.6437H69.1346V28.0919H75.8606V33.6437Z" fill="white"/>
<path d="M5.86404 5.76855V10.3806H3.14196V5.76855H0.0742188V17.4071V19.6047H1.75932C1.75932 19.6047 1.87454 19.6047 1.94655 19.6047H8.83096V5.76855H5.84964H5.86404ZM5.82083 17.4794H3.09875V12.5204H5.82083V17.4794Z" fill="white"/>
<path d="M51.2898 0.259766V4.87181H48.5677V0.259766H45.5V11.8983V14.0959H47.1851C47.1851 14.0959 47.3003 14.0959 47.3723 14.0959H54.2567V0.259766H51.2754H51.2898ZM51.2466 11.9562H48.5245V6.99712H51.2466V11.9562Z" fill="white"/>
<path d="M89.0671 29.9423L88.7214 29.2483C88.5774 28.9736 88.491 28.7712 88.3758 28.5543C88.2894 28.7712 88.2029 28.9736 88.0733 29.2483L87.7565 29.9423H86.7627L87.8717 27.9905L86.8059 26.082H87.7997L88.1309 26.7905C88.2462 27.0218 88.3326 27.2097 88.419 27.4266C88.5054 27.1808 88.5918 27.0073 88.6782 26.7905L89.0095 26.082H90.0033L88.9231 27.9615L90.0609 29.9278H89.0527L89.0671 29.9423Z" fill="white"/>
<path d="M91.2565 28.9445L90.9828 29.9276H90.0898L91.2565 26.0674H92.3942L93.5897 29.9276H92.6535L92.351 28.9445H91.2565ZM92.2214 28.2939L91.9766 27.4698C91.9046 27.2385 91.8326 26.9493 91.7893 26.7324C91.7317 26.9638 91.6741 27.2529 91.6165 27.4698L91.3861 28.2939H92.2358H92.2214Z" fill="white"/>
<path d="M97.1617 28.4682C97.1473 28.0055 97.1329 27.4417 97.1329 26.8778C97.0033 27.3694 96.8449 27.9188 96.7008 28.367L96.2399 29.8706H95.563L95.1598 28.3814C95.0301 27.9188 94.9149 27.3694 94.8141 26.8778C94.7997 27.3983 94.7709 27.9911 94.7565 28.4682L94.6845 29.9284H93.8779L94.1228 26.0682H95.275L95.6494 27.3549C95.7791 27.8031 95.8943 28.2802 95.9807 28.7284H96.0095C96.1103 28.2802 96.24 27.7742 96.3696 27.3405L96.7728 26.0537H97.9106L98.1123 29.914H97.2625L97.2049 28.4393L97.1617 28.4682Z" fill="white"/>
<path d="M102.346 29.8268C102.188 29.8991 101.828 30.0003 101.367 30.0003C100.042 30.0003 99.3506 29.1618 99.3506 28.063C99.3506 26.7473 100.287 26.0244 101.439 26.0244C101.885 26.0244 102.231 26.1112 102.39 26.1979L102.202 26.8774C102.029 26.8051 101.785 26.7328 101.468 26.7328C100.791 26.7328 100.244 27.1521 100.244 28.0051C100.244 28.7714 100.704 29.263 101.468 29.263C101.741 29.263 102.015 29.2051 102.202 29.1328L102.332 29.8124L102.346 29.8268Z" fill="white"/>
<path d="M105.026 28.3083H103.614V29.2192H105.198V29.9276H102.75V26.0674H105.112V26.7758H103.614V27.571H105.026V28.2794V28.3083Z" fill="white"/>
<path d="M105.616 29.9423V26.082H106.624L107.416 27.4989C107.647 27.9037 107.863 28.3808 108.05 28.8146C107.992 28.3085 107.978 27.7881 107.978 27.2097V26.0965H108.77V29.9567H107.863L107.042 28.4676C106.811 28.0628 106.552 27.5567 106.379 27.1085H106.351C106.379 27.629 106.394 28.164 106.394 28.8001V29.9567H105.602L105.616 29.9423Z" fill="white"/>
<path d="M110.109 26.8194H109.072V26.082H112.025V26.8194H110.973V29.9423H110.109V26.8194Z" fill="white"/>
<path d="M114.588 28.3083H113.177V29.2192H114.761V29.9276H112.312V26.0674H114.675V26.7758H113.177V27.571H114.588V28.2794V28.3083Z" fill="white"/>
<path d="M115.165 26.1405C115.438 26.0971 115.856 26.0537 116.317 26.0537C116.893 26.0537 117.282 26.1405 117.556 26.3573C117.786 26.5453 117.916 26.82 117.916 27.167C117.916 27.6585 117.57 27.9911 117.239 28.1067C117.512 28.2368 117.656 28.4826 117.757 28.8441C117.872 29.2778 117.988 29.7838 118.06 29.9429H117.167C117.109 29.8272 117.008 29.5236 116.908 29.0465C116.807 28.5549 116.634 28.4393 116.274 28.4248H116.015V29.9429H115.15V26.1405H115.165ZM116.029 27.7886H116.375C116.807 27.7886 117.066 27.5718 117.066 27.2393C117.066 26.9067 116.821 26.7043 116.432 26.7043C116.216 26.7043 116.101 26.7043 116.043 26.7332V27.7886H116.029Z" fill="white"/>
<path d="M86.6477 24.5635H86.3596C86.3884 24.3755 86.4028 24.231 86.4028 24.1298C86.4028 23.9852 86.3452 23.8984 86.23 23.8551C86.1148 23.8117 85.6683 23.7828 84.8906 23.7828H84.1128L83.5223 26.1394H84.6169C84.9626 26.1394 85.1786 26.1105 85.2506 26.0671C85.337 26.0093 85.3946 25.8936 85.4235 25.6767H85.7259C85.6107 26.1105 85.5099 26.5731 85.4235 27.0936H85.1498C85.1642 26.9201 85.1786 26.8045 85.1786 26.7033C85.1786 26.6599 85.1498 26.6165 85.1066 26.5587C85.0778 26.5298 85.0346 26.5153 84.9626 26.5008C84.8618 26.4864 84.7177 26.4719 84.5161 26.4719H83.4215C83.1046 27.6719 82.7878 28.6261 82.4421 29.3057C82.7734 29.2045 83.0614 29.1466 83.3207 29.1466C83.7384 29.1466 84.2713 29.2189 84.8762 29.349C85.2074 29.4213 85.4235 29.4647 85.5387 29.4647C85.6971 29.4647 85.8267 29.4213 85.9131 29.349C86.014 29.2767 86.0572 29.19 86.0572 29.0888C86.0572 29.031 86.0284 28.9442 85.9852 28.8141C85.9564 28.7274 85.9419 28.6406 85.9419 28.5683C85.9419 28.4816 85.9707 28.4093 86.0428 28.3514C86.1148 28.2936 86.1868 28.2502 86.2732 28.2502C86.3884 28.2502 86.4748 28.2936 86.5469 28.3804C86.6189 28.4671 86.6621 28.5828 86.6621 28.7274C86.6621 29.031 86.5324 29.2912 86.2732 29.5225C86.014 29.7539 85.6683 29.8695 85.2362 29.8695C85.0058 29.8695 84.7177 29.8551 84.3721 29.8117C83.6087 29.7249 83.0326 29.6816 82.6294 29.6816C82.1109 29.6816 81.4916 29.7249 80.7858 29.8117L80.8723 29.5081C81.2899 29.3924 81.5348 29.3057 81.6212 29.2478C81.6932 29.19 81.7652 29.1177 81.8084 29.002C81.9812 28.6695 82.1973 27.99 82.4709 26.978C82.7446 25.9659 83.0182 24.896 83.2919 23.7683C82.8598 23.7683 82.4709 23.8695 82.0821 24.0719C81.7076 24.2743 81.4051 24.5346 81.1891 24.8671C80.9731 25.1852 80.8723 25.5322 80.8723 25.8936C80.8723 26.0527 80.8867 26.1828 80.9155 26.2984C80.9443 26.4141 81.0163 26.5731 81.1171 26.7755C81.1891 26.9057 81.2179 27.0069 81.2179 27.0792C81.2179 27.1514 81.1891 27.2237 81.1171 27.2816C81.0451 27.3394 80.9731 27.3683 80.8723 27.3683C80.7282 27.3683 80.6274 27.296 80.541 27.1659C80.4258 26.9635 80.3682 26.6888 80.3682 26.3418C80.3682 25.59 80.6562 24.9249 81.2179 24.3322C81.7796 23.7394 82.6006 23.4358 83.6807 23.4358H85.4955C86.1292 23.4358 86.5901 23.3924 86.8925 23.3057C86.7485 23.8984 86.6621 24.3177 86.6189 24.5635H86.6477Z" fill="white"/>
</g>
<defs>
<clipPath id="clip0_299_7596">
<rect width="119" height="36" fill="white"/>
</clipPath>
</defs>
</svg>
