<svg width="115" height="36" viewBox="0 0 115 36" fill="none" xmlns="http://www.w3.org/2000/svg">
<g clip-path="url(#clip0_299_7669)">
<path fill-rule="evenodd" clip-rule="evenodd" d="M17.6635 24.9553H14.6695V13.896H12.9647V24.9553H10.0566V5.60156H12.9647V11.6613H14.6695V5.60156H17.6635V24.9553Z" fill="white"/>
<path fill-rule="evenodd" clip-rule="evenodd" d="M46.3715 20.4427C46.1137 20.5287 45.6839 20.5287 45.2542 20.5287C44.6525 20.5287 44.1368 20.4427 43.7213 20.1848C43.3775 19.927 42.9478 19.5832 42.518 19.0675C41.6585 17.9501 40.8133 16.933 40.0397 15.9015C39.1801 16.5032 38.7647 17.0189 38.7647 17.6922C38.7647 18.5374 39.2804 19.0531 40.3835 19.0531H41.8447V20.4284C41.329 20.5143 40.7273 20.5143 39.968 20.5143C37.7476 20.5143 36.6445 19.6548 36.6445 17.7782C36.6445 16.5891 37.4181 15.5577 38.9509 14.6265C38.6071 14.1968 38.3493 13.767 38.1774 13.5092C37.9195 12.9934 37.7476 12.4777 37.7476 12.0623C37.7476 11.1168 38.1774 10.5295 38.9366 10.0997C39.5383 9.75588 40.2259 9.66992 40.9852 9.66992C41.8447 9.66992 42.4464 9.75587 42.9478 10.0137C43.8073 10.4435 44.2227 11.1168 44.2227 12.1482C44.2227 13.0078 43.793 13.6811 42.9478 14.3687C42.7758 14.5406 42.3461 14.7985 41.8447 15.0563C42.518 15.9158 43.2056 16.847 44.0651 17.7925C44.7528 18.652 45.4261 19.0818 46.1996 19.0818H46.3715V20.457V20.4427ZM42.0882 12.2342C42.0882 11.4606 41.7444 11.1311 40.9708 11.1311C40.1973 11.1311 39.8678 11.4749 39.8678 12.1626C39.8678 12.4204 39.9537 12.7642 40.2116 13.108C40.3835 13.3659 40.5554 13.6238 40.7273 13.8816C41.0711 13.6238 41.329 13.5378 41.5009 13.3659C41.9163 13.108 42.0882 12.6783 42.0882 12.2485" fill="white"/>
<path fill-rule="evenodd" clip-rule="evenodd" d="M63.2758 19.3538H60.2817V8.29447H58.577V19.3538H55.7549V0H58.577V6.05969H60.2817V0H63.2758V19.3538Z" fill="white"/>
<path fill-rule="evenodd" clip-rule="evenodd" d="M34.0659 14.6687C34.0659 16.3734 33.4642 17.7487 32.1892 18.7658C30.9859 19.7972 29.3671 20.2986 27.4045 20.2986C25.4419 20.2986 23.8948 19.7829 22.6198 18.7658C21.4164 17.7343 20.8291 16.3734 20.8291 14.6687C20.8291 12.9639 21.4308 11.5171 22.6198 10.4856C23.8948 9.4542 25.5279 8.93848 27.4045 8.93848C29.2811 8.93848 30.9859 9.4542 32.1892 10.4856C33.4642 11.5171 34.0659 12.9639 34.0659 14.6687ZM30.814 14.6687C30.814 13.7232 30.4702 12.9639 29.8685 12.2763C29.2668 11.689 28.4216 11.3308 27.3902 11.3308C26.4447 11.3308 25.5995 11.6746 24.9978 12.2763C24.3962 12.9639 24.0523 13.7232 24.0523 14.6687C24.0523 15.6142 24.3962 16.3734 24.9978 16.9751C25.5852 17.5768 26.4447 17.9206 27.3902 17.9206C28.4216 17.9206 29.2668 17.5768 29.8685 16.9751C30.4702 16.3734 30.814 15.5998 30.814 14.6687Z" fill="white"/>
<path fill-rule="evenodd" clip-rule="evenodd" d="M25.1705 35.999H29.7117V24.954H40.2123V21.96H14.6699V24.954H25.1705V35.999Z" fill="white"/>
<path fill-rule="evenodd" clip-rule="evenodd" d="M79.3344 9.74093C79.3344 11.4457 78.7328 12.8209 77.5437 13.838C76.2688 14.8695 74.7216 15.4568 72.759 15.4568C70.7964 15.4568 69.1633 14.8551 67.9743 13.838C66.6993 12.8209 66.0977 11.4457 66.0977 9.74093C66.0977 8.03619 66.6993 6.66095 67.9743 5.64383C69.1633 4.6124 70.7964 4.09668 72.759 4.09668C74.7216 4.09668 76.2544 4.6124 77.5437 5.64383C78.7328 6.66095 79.3344 8.03619 79.3344 9.74093ZM76.0969 9.74093C76.0969 8.79545 75.7531 8.03619 75.1657 7.43452C74.564 6.83285 73.7045 6.48904 72.7733 6.48904C71.7419 6.48904 70.8967 6.83285 70.295 7.43452C69.6934 8.03619 69.3495 8.80977 69.3495 9.74093C69.3495 10.6721 69.6934 11.4457 70.295 12.0473C70.8967 12.735 71.7562 12.9928 72.7733 12.9928C73.7045 12.9928 74.564 12.735 75.1657 12.0473C75.7674 11.4457 76.0969 10.6721 76.0969 9.74093Z" fill="white"/>
<path fill-rule="evenodd" clip-rule="evenodd" d="M114.045 17.1328H63.1895V19.3533H71.0542V26.0863H74.392V19.3533H114.045V17.1328Z" fill="white"/>
<path d="M65.9971 25.9434V35.8566H79.4487V25.9434H65.9971ZM76.0679 33.6362H69.3206V28.0779H76.0679V33.6362Z" fill="white"/>
<path d="M5.81616 5.77344V10.3863H3.07998V5.77344H0V17.4057V19.6119H1.69041C1.69041 19.6119 1.81934 19.6119 1.87664 19.6119H8.79586V5.77344H5.80183H5.81616ZM5.77318 17.4774H3.03701V12.5208H5.77318V17.4774Z" fill="white"/>
<path d="M51.4148 0.257812V4.87063H48.6786V0.257812H45.5986V11.8901V14.0963H47.289C47.289 14.0963 47.418 14.0963 47.4753 14.0963H54.3945V0.257812H51.4005H51.4148ZM51.3718 11.9618H48.6356V7.00513H51.3718V11.9618Z" fill="white"/>
<path d="M85.3796 21.8744L85.6231 21.903L85.752 22.1036V22.3471C85.752 22.3471 85.752 22.433 85.752 22.4617C85.752 22.4904 85.7807 22.605 85.795 22.7912L85.838 22.9201V23.1207L85.9669 23.2496V23.3212L86.1388 24.7108H86.1961L86.2678 24.8111H86.0959C86.1675 25.0116 86.2248 25.2122 86.2678 25.4128L86.4397 25.4844L86.6116 25.3411L86.7835 25.4128H86.9124C86.9267 25.4271 86.9984 25.4414 87.1273 25.4557L87.3995 25.2552L87.8292 25.2838V25.1979L88.1158 25.2838L88.5885 25.1549L88.6888 25.0546C88.6888 25.0546 88.7747 24.983 88.832 24.9687L89.0469 24.897L89.1472 25.0546H89.3191L89.3907 25.2695C89.3191 25.4128 89.2618 25.513 89.1902 25.5703L89.1329 25.5417L88.7031 25.9858L88.4882 26.129H87.9582L87.6717 26.215L87.4138 26.1577L86.8981 26.3726H86.8694L86.5543 26.4872L86.6259 27.6475H86.6402V27.7048L86.5686 27.7908L86.6402 27.8624V28.106L86.7119 28.1633L86.6546 28.2635L86.7548 28.4068L86.8121 28.8365L86.8838 28.9368L86.9554 28.9082L86.984 28.9798V29.0514H86.8981L86.9267 29.6818C86.8694 29.782 86.7978 29.8823 86.7262 29.9539L86.54 29.9826L86.4826 30.1402L86.3394 30.1115V30.2548L86.2821 30.3551C86.2534 30.3837 86.1675 30.4553 85.9956 30.5556L85.8094 30.398C85.8094 30.398 85.7664 30.3407 85.7377 30.2834L85.6804 30.1258V29.825L85.5801 29.3523L85.5372 29.2806L85.5801 28.9798L85.5372 28.7219L85.6374 28.5214L85.5085 28.0916C85.5085 28.0916 85.5658 27.934 85.5801 27.8194L85.5372 27.7335L85.5801 27.5043C85.5801 27.5043 85.5658 27.3037 85.5085 27.1032L85.6088 26.8883L85.5801 26.5301L85.4226 26.4299L85.308 26.4728V26.4299L85.0644 26.4585L85.0931 26.6018L84.9785 26.5731L84.8495 26.6018L84.8209 26.6304C84.6633 26.7164 84.4914 26.7594 84.3481 26.7594H84.1906L83.8754 26.831L83.5459 26.8883V27.0315L83.2881 26.9313V27.0315H83.2451L83.0875 27.1891H82.8726L82.9586 27.404L82.7437 27.361L82.4285 27.5473L82.3569 27.6332L82.185 27.5759L81.9844 27.7192H81.7982V27.8624L81.5976 27.8911L81.5117 28.063L81.4114 28.1633L81.2825 28.5071L81.3255 28.5357C81.3255 28.5357 81.2538 28.636 81.1536 28.7363V29.0228L80.9817 29.1374V29.1947H80.9244V29.3093L80.7524 29.4382V29.4812C80.7524 29.4812 80.6808 29.5672 80.6235 29.6818H80.5805L80.4516 30.0542L80.4086 29.9826V30.0256L80.2797 30.1258L80.2511 30.2261C80.2511 30.2261 80.2081 30.3121 80.1364 30.3694L79.9359 30.2978C79.9359 30.2978 79.8929 30.1975 79.8786 30.1975V30.1258L79.8929 30.0829L79.9216 29.9826C79.9216 29.9826 79.8643 29.782 79.8499 29.5815L79.9216 29.6245L79.8643 29.5672V29.4955H79.8786L79.8356 29.3379L79.8786 29.2377L79.8213 29.1087L79.8499 29.0658C79.8499 28.9798 79.8499 28.8795 79.8356 28.7363L79.9359 28.6503L80.2224 28.8795H80.3943L81.0103 28.106L80.91 28.0486V27.934L80.7381 28.02L80.7095 28.0773H80.6665L80.5376 28.1203C80.5089 28.1346 80.423 28.1633 80.3084 28.1776L80.1364 27.9484C80.2224 27.7335 80.294 27.6046 80.3657 27.5759C80.3657 27.5329 80.423 27.4613 80.5376 27.3324L80.6665 27.2894H80.6522L80.8527 27.0029H80.8671L81.3398 26.9026L81.3971 27.0029L81.4974 26.9742V27.0029H81.5833L81.6263 26.9026H81.7839V26.874L81.8985 26.7737L81.8269 26.6447L81.9271 26.5015L82.1707 26.4012V26.258C82.1707 26.2293 82.228 26.172 82.3426 26.0861C82.4142 25.8139 82.4858 25.6563 82.5575 25.6133H82.5145L82.7723 25.2982H82.7867L83.1591 24.7251H83.1448L83.2881 24.5102H83.3167L83.6175 23.9659H83.6605L83.9041 23.5504L83.9757 23.5218L84.1046 23.2926C84.1046 23.2926 84.1476 23.1923 84.2049 23.049L84.3768 22.9201L84.4771 22.6479H84.5344L84.563 22.433H84.6347V22.3614H84.6776L84.7349 22.2325L85.1504 21.989L85.3653 21.8457L85.3796 21.8744ZM84.5344 23.4788L84.3625 23.5218V23.5934L84.1906 23.7653H84.1333L83.8897 24.1091H83.8611L83.6892 24.4529V24.5102L83.6175 24.6105C83.6175 24.6105 83.5602 24.6822 83.5316 24.6965L83.3883 24.7824L83.3167 24.9543C83.3167 24.9543 83.2737 25.1262 83.2594 25.3268L83.1591 25.2982V25.4414L82.9443 25.599H82.9586V25.7422L82.7867 25.8139L82.6434 26.2007C82.6148 26.2723 82.5861 26.3296 82.5575 26.3726L82.4285 26.5445L82.4572 26.5731V26.6018L82.5145 26.6304H82.8296L82.9586 26.702L83.374 26.4442H83.7178L83.7322 26.5015L83.7608 26.3726H83.9614L84.3195 26.2723L84.4198 26.3009L84.6347 26.2293L84.9641 26.1004V26.0717L85.3796 25.9714V25.8425L85.2363 25.7136V25.2982L85.3509 25.026L85.2363 24.94L85.0787 25.026L84.8782 24.7538H85.1504V24.6535L84.8209 24.5819L84.8495 24.4959L84.7493 24.3813L84.8066 24.281L84.6347 24.0089L84.6633 23.9516L84.7063 23.9229L84.6203 23.8513L84.563 23.4788L84.4914 23.4358L84.5344 23.4788Z" fill="white"/>
<path d="M88.3157 26.1288C88.6022 26.0858 89.0033 26.0428 89.4761 26.0428C90.0491 26.0428 90.4502 26.1288 90.7224 26.3437C90.9516 26.5299 91.0806 26.8021 91.0806 27.1602C91.0806 27.6473 90.7367 27.9911 90.4073 28.1057C90.6794 28.2346 90.8227 28.4782 90.923 28.8363C91.0376 29.2804 91.1522 29.7818 91.2381 29.925H90.3499C90.2926 29.8104 90.1924 29.4953 90.0921 29.0225C89.9775 28.5355 89.8199 28.4065 89.4618 28.4065H89.2039V29.925H88.3444V26.1288H88.3157ZM89.5191 27.7905C89.9488 27.7905 90.2067 27.5756 90.2067 27.2318C90.2067 26.888 89.9632 26.7018 89.562 26.7018C89.3472 26.7018 89.2326 26.7018 89.1609 26.7304V27.7905H89.5191Z" fill="white"/>
<path d="M92.2696 26.8161H91.2238V26.0855H94.1892V26.8161H93.1435V29.9391H92.2696V26.8161Z" fill="white"/>
<path d="M98.2863 29.8391C98.1287 29.9107 97.7706 30.011 97.2978 30.011C95.9656 30.011 95.2779 29.1801 95.2779 28.077C95.2779 26.7591 96.2091 26.0428 97.3838 26.0428C97.8422 26.0428 98.186 26.1288 98.3293 26.2147L98.143 26.9023C97.9711 26.8307 97.7276 26.7591 97.4124 26.7591C96.7248 26.7591 96.1948 27.1745 96.1948 28.0341C96.1948 28.8076 96.6532 29.2947 97.4268 29.2947C97.6989 29.2947 97.9855 29.2374 98.1574 29.1658L98.2863 29.8534V29.8391Z" fill="white"/>
<path d="M100.979 28.306H99.5611V29.2228H101.151V29.9391H98.7016V26.0855H101.08V26.8018H99.5755V27.604H100.994V28.3203L100.979 28.306Z" fill="white"/>
<path d="M101.567 29.9391V26.0855H102.584L103.386 27.5038C103.616 27.9049 103.845 28.392 104.017 28.8217C103.959 28.3203 103.945 27.7903 103.945 27.2029V26.0855H104.747V29.9391H103.831L103.014 28.4493C102.785 28.0338 102.527 27.5467 102.341 27.0883H102.312C102.341 27.604 102.355 28.1484 102.355 28.7787V29.9391H101.553H101.567Z" fill="white"/>
<path d="M106.079 26.8161H105.033V26.0855H107.999V26.8161H106.953V29.9391H106.079V26.8161Z" fill="white"/>
<path d="M110.577 28.306H109.159V29.2228H110.749V29.9391H108.299V26.0855H110.677V26.8018H109.173V27.604H110.592V28.3203L110.577 28.306Z" fill="white"/>
<path d="M111.151 26.1288C111.437 26.0858 111.838 26.0428 112.311 26.0428C112.884 26.0428 113.285 26.1288 113.557 26.3437C113.786 26.5299 113.915 26.8021 113.915 27.1602C113.915 27.6473 113.572 27.9911 113.242 28.1057C113.514 28.2346 113.658 28.4782 113.758 28.8363C113.872 29.2804 113.987 29.7818 114.073 29.925H113.185C113.128 29.8104 113.027 29.4953 112.927 29.0225C112.812 28.5355 112.655 28.4065 112.297 28.4065H112.039V29.925H111.179V26.1288H111.151ZM112.368 27.7905C112.798 27.7905 113.056 27.5756 113.056 27.2318C113.056 26.888 112.812 26.7018 112.411 26.7018C112.196 26.7018 112.082 26.7018 112.01 26.7304V27.7905H112.368Z" fill="white"/>
</g>
<defs>
<clipPath id="clip0_299_7669">
<rect width="115" height="36" fill="white"/>
</clipPath>
</defs>
</svg>
