<svg width="60" height="60" viewBox="0 0 60 60" fill="none" xmlns="http://www.w3.org/2000/svg">
<path d="M12.9375 10.5625V49.9375H44.4375V10.5625H12.9375ZM11.625 9.25H45.75V51.25H11.625V9.25ZM50.3438 15.8125V21.7188H49.0312V15.1562H50.3438V15.8125ZM50.3438 25.6562V32.2188H49.0312V25.6562H50.3438ZM50.3438 36.8125V42.7188H49.0312V36.1562H50.3438V36.8125ZM21.3047 39.4375H19.9102L22.125 32.875H35.25L37.4648 39.4375H36.0703L34.3477 34.1875H23.1094L21.3047 39.4375ZM32.625 25C32.625 22.7852 30.9023 21.0625 28.6875 21.0625C26.4727 21.0625 24.75 22.7852 24.75 25C24.75 27.2148 26.4727 28.9375 28.6875 28.9375C30.9023 28.9375 32.625 27.2148 32.625 25ZM23.4375 25C23.4375 22.1289 25.8164 19.75 28.6875 19.75C31.5586 19.75 33.9375 22.1289 33.9375 25C33.9375 27.8711 31.5586 30.25 28.6875 30.25C25.8164 30.25 23.4375 27.8711 23.4375 25Z" fill="#222222"/>
</svg>
