<svg width="60" height="60" viewBox="0 0 60 60" fill="none" xmlns="http://www.w3.org/2000/svg">
<path d="M30.9844 12.6133L32.625 18.9297L42.7969 16.2227L41.0742 9.90625L30.9844 12.6133ZM33.0352 20.1602L39.1055 43.0469L49.2773 40.3398L43.125 17.4531L33.0352 20.1602ZM41.1562 50.5938L51.3281 47.8867L49.6055 41.5703L39.4336 44.2773L41.1562 50.5938ZM52.5586 47.5586L52.8867 48.7891L51.6562 49.1992L41.4844 51.9062L40.2539 52.2344L39.9258 50.9219L32.625 23.8516V51.25H9V9.25H22.125V17.125H30.8203C29.918 13.8438 29.4258 12.0391 29.3438 11.6289L30.6562 11.3008L40.7461 8.59375L42.0586 8.26562L42.3867 9.49609L44.1094 15.8945L44.4375 17.125L50.5078 39.9297L50.8359 41.2422L52.5586 47.5586ZM31.3125 19.0117L31.1484 18.4375H22.125V49.9375H31.3125V19.0117ZM20.8125 10.5625H10.3125V17.125H20.8125V10.5625ZM10.3125 42.0625H20.8125V18.4375H10.3125V42.0625ZM20.8125 43.375H10.3125V49.9375H20.8125V43.375Z" fill="#222222"/>
</svg>
