<svg width="60" height="60" viewBox="0 0 60 60" fill="none" xmlns="http://www.w3.org/2000/svg">
<path d="M25.4062 9.25H51V51.25H9V19.75H25.4062V9.25ZM25.4062 21.0625H10.3125V49.9375H25.4062V21.0625ZM26.7188 49.9375H49.6875V10.5625H26.7188V49.9375ZM39.1875 15.8125H44.4375V21.0625H39.1875V15.8125ZM40.5 17.125V19.75H43.125V17.125H40.5ZM31.9688 15.8125H36.5625V21.0625H31.3125V15.8125H31.9688ZM32.625 19.75H35.25V17.125H32.625V19.75ZM39.1875 23.6875H44.4375V28.9375H39.1875V23.6875ZM40.5 27.625H43.125V25H40.5V27.625ZM31.9688 23.6875H36.5625V28.9375H31.3125V23.6875H31.9688ZM32.625 25V27.625H35.25V25H32.625ZM15.5625 26.3125H20.8125V31.5625H15.5625V26.3125ZM16.875 27.625V30.25H19.5V27.625H16.875ZM31.9688 31.5625H36.5625V36.8125H31.3125V31.5625H31.9688ZM32.625 32.875V35.5H35.25V32.875H32.625ZM15.5625 34.1875H20.8125V39.4375H15.5625V34.1875ZM16.875 35.5V38.125H19.5V35.5H16.875ZM39.8438 31.5625H44.4375V36.8125H39.1875V31.5625H39.8438ZM43.125 35.5V32.875H40.5V35.5H43.125Z" fill="#222222"/>
</svg>
