<svg width="60" height="60" viewBox="0 0 60 60" fill="none" xmlns="http://www.w3.org/2000/svg">
<path d="M9.65625 9.25H22.125V10.5625H10.3125V22.375H9V9.25H9.65625ZM51 9.25V22.375H49.6875V10.5625H37.875V9.25H51ZM24.75 17.125H35.25L36.2344 19.75H43.125V40.75H16.875V19.75H23.7656L24.75 17.125ZM36.2344 21.0625H35.332C35.168 20.6523 34.8398 19.75 34.3477 18.4375H25.6523C25.1602 19.75 24.832 20.6523 24.668 21.0625H18.1875V39.4375H41.8125V21.0625H36.2344ZM33.9375 30.25C33.9375 28.0352 32.2148 26.3125 30 26.3125C27.7852 26.3125 26.0625 28.0352 26.0625 30.25C26.0625 32.4648 27.7852 34.1875 30 34.1875C32.2148 34.1875 33.9375 32.4648 33.9375 30.25ZM24.75 30.25C24.75 27.3789 27.1289 25 30 25C32.8711 25 35.25 27.3789 35.25 30.25C35.25 33.1211 32.8711 35.5 30 35.5C27.1289 35.5 24.75 33.1211 24.75 30.25ZM9 51.25V38.125H10.3125V49.9375H22.125V51.25H9ZM50.3438 51.25H37.875V49.9375H49.6875V38.125H51V51.25H50.3438Z" fill="#222222"/>
</svg>
