<svg width="60" height="60" viewBox="0 0 60 60" fill="none" xmlns="http://www.w3.org/2000/svg">
<path d="M18.1875 9.90625C12.7734 9.90625 8.34375 14.3359 8.34375 19.75C8.34375 25.1641 12.7734 29.5938 18.1875 29.5938H33.9375C39.3516 29.5938 43.7812 25.1641 43.7812 19.75C43.7812 14.3359 39.3516 9.90625 33.9375 9.90625C30.9844 9.90625 28.3594 11.2188 26.5547 13.2695L26.0625 13.7617L25.5703 13.2695C23.7656 11.2188 21.1406 9.90625 18.1875 9.90625ZM7.03125 19.75C7.03125 13.5977 12.0352 8.59375 18.1875 8.59375C21.3047 8.59375 24.0117 9.82422 26.0625 11.875C28.1133 9.82422 30.9023 8.59375 33.9375 8.59375C40.0898 8.59375 45.0938 13.5977 45.0938 19.75C45.0938 25.9023 40.0898 30.9062 33.9375 30.9062H18.1875C12.0352 30.9062 7.03125 25.9023 7.03125 19.75ZM33.9375 23.0312C35.7422 23.0312 37.2188 21.5547 37.2188 19.75C37.2188 17.9453 35.7422 16.4688 33.9375 16.4688C32.1328 16.4688 30.6562 17.9453 30.6562 19.75C30.6562 21.5547 32.1328 23.0312 33.9375 23.0312ZM33.9375 15.1562C36.4805 15.1562 38.5312 17.207 38.5312 19.75C38.5312 22.293 36.4805 24.3438 33.9375 24.3438C31.3945 24.3438 29.3438 22.293 29.3438 19.75C29.3438 17.207 31.3945 15.1562 33.9375 15.1562ZM11.625 34.1055C12.0352 34.2695 12.5273 34.4336 12.9375 34.5977V47.3125H39.1875V34.5977C39.5977 34.4336 40.0898 34.2695 40.5 34.1055V48.625H11.625V34.1055ZM21.4688 19.75C21.4688 17.9453 19.9922 16.4688 18.1875 16.4688C16.3828 16.4688 14.9062 17.9453 14.9062 19.75C14.9062 21.5547 16.3828 23.0312 18.1875 23.0312C19.9922 23.0312 21.4688 21.5547 21.4688 19.75ZM13.5938 19.75C13.5938 17.207 15.6445 15.1562 18.1875 15.1562C20.7305 15.1562 22.7812 17.207 22.7812 19.75C22.7812 22.293 20.7305 24.3438 18.1875 24.3438C15.6445 24.3438 13.5938 22.293 13.5938 19.75ZM52.3125 50.3477L44.4375 45.0977V43.5391L52.3125 48.7891V27.4609L44.4375 32.7109V31.1523L52.3125 25.9023L53.625 25V51.25L52.3125 50.3477Z" fill="#222222"/>
</svg>
