<svg width="60" height="60" viewBox="0 0 60 60" fill="none" xmlns="http://www.w3.org/2000/svg">
<path d="M33.1172 26.3125H10.3125V44.6875H26.9648C27.1289 45.0977 27.293 45.5898 27.457 46H9V14.5H51V26.6406C50.5898 26.3125 50.1797 26.0664 49.6875 25.8203V15.8125H48.6211L48.2109 16.3047L41.2383 23.6875C40.582 23.7695 39.9258 23.7695 39.2695 23.9336L46.8164 15.8125H35.4961L26.8828 25H35.4961C34.6758 25.4102 33.8555 25.8203 33.1172 26.3125ZM25.1602 25L33.6914 15.8125H22.3711L13.7578 25H25.1602ZM10.3125 15.8125V25H12.0352L20.6484 15.8125H10.3125ZM41.8125 49.9375C47.6367 49.9375 52.3125 45.2617 52.3125 39.4375C52.3125 33.6133 47.6367 28.9375 41.8125 28.9375C35.9883 28.9375 31.3125 33.6133 31.3125 39.4375C31.3125 45.2617 35.9883 49.9375 41.8125 49.9375ZM41.8125 27.625C48.375 27.625 53.625 32.875 53.625 39.4375C53.625 46 48.375 51.25 41.8125 51.25C35.25 51.25 30 46 30 39.4375C30 32.875 35.25 27.625 41.8125 27.625ZM38.5312 33.6953L39.5156 34.2695L47.1445 38.8633L48.1289 39.4375L47.1445 40.0117L39.5156 44.6055L38.5312 45.1797V33.6953ZM39.8438 42.8828L45.5859 39.4375L39.8438 35.9922V42.8828Z" fill="#222222"/>
</svg>
