<svg width="60" height="60" viewBox="0 0 60 60" fill="none" xmlns="http://www.w3.org/2000/svg">
<path d="M10.3125 30.25V35.5H9V30.25C9 18.6836 18.4336 9.25 30 9.25C36.8086 9.25 42.8789 12.5312 46.7344 17.5352L47.1445 18.0273L46.0781 18.8477L45.668 18.3555C42.0586 13.5977 36.3984 10.5625 30 10.5625C19.1719 10.5625 10.3125 19.4219 10.3125 30.25ZM50.0977 24.0977C50.6719 26.0664 51 28.1172 51 30.25V35.5H49.6875V30.25C49.6875 28.2812 49.3594 26.3125 48.8672 24.5078L48.6211 23.8516L49.9336 23.4414L50.0977 24.0977ZM30 15.8125C37.957 15.8125 44.4375 22.293 44.4375 30.25V32.3008C44.4375 35.1719 44.1914 37.9609 43.7812 40.75H42.4688C42.8789 37.9609 43.125 35.1719 43.125 32.3008V30.25C43.125 23.0312 37.2188 17.125 30 17.125C27.7852 17.125 25.7344 17.6992 23.8477 18.6836L23.1094 17.6172C25.1602 16.4688 27.5391 15.8125 30 15.8125ZM19.9102 19.9141L20.7305 20.9805C18.3516 23.3594 16.875 26.6406 16.875 30.25V32.3008C16.875 35.1719 16.4648 38.043 15.6445 40.75H14.25C15.1523 38.043 15.5625 35.1719 15.5625 32.3008V30.25C15.5625 26.2305 17.2031 22.5391 19.9102 19.9141ZM30 22.375C34.3477 22.375 37.875 25.9023 37.875 30.25V32.3008C37.875 36.0742 37.4648 39.7656 36.6445 43.375H35.332C36.1523 39.7656 36.5625 36.0742 36.5625 32.3008V30.25C36.5625 26.6406 33.6094 23.6875 30 23.6875C26.3906 23.6875 23.4375 26.6406 23.4375 30.25V32.3008C23.4375 36.0742 22.8633 39.8477 21.6328 43.375H20.3203C21.4688 39.8477 22.125 36.0742 22.125 32.3008V30.25C22.125 25.9023 25.6523 22.375 30 22.375ZM30.6562 30.25V32.3008C30.6562 37.5508 29.6719 42.7188 27.7852 47.6406L27.457 48.625H25.9805L26.1445 48.3789L26.5547 47.1484C28.4414 42.3906 29.3438 37.3867 29.3438 32.3008V30.25H30.6562Z" fill="#222222"/>
</svg>
