<svg width="60" height="60" viewBox="0 0 60 60" fill="none" xmlns="http://www.w3.org/2000/svg">
<path d="M16.875 11.875H51V48.625H12.9375C12.6914 48.625 12.5273 48.625 12.2812 48.625H9V19.75H10.3125V47.3125H12.2812C14.8242 47.3125 16.875 45.2617 16.875 42.7188V11.875ZM15.9727 47.3125H49.6875V13.1875H18.1875V42.7188C18.1875 44.6055 17.3672 46.2461 15.9727 47.3125ZM37.875 23.6875H44.4375V25H37.875V23.6875ZM37.875 28.9375H44.4375V30.25H37.875V28.9375ZM23.4375 34.1875H44.4375V35.5H23.4375V34.1875ZM23.4375 39.4375H44.4375V40.75H23.4375V39.4375ZM24.75 21.0625V28.9375H32.625V21.0625H24.75ZM23.4375 19.75H33.9375V30.25H23.4375V19.75Z" fill="#222222"/>
</svg>
