<svg width="60" height="60" viewBox="0 0 60 60" fill="none" xmlns="http://www.w3.org/2000/svg">
<path d="M37.3008 10.5625H16.875V21.0625H15.5625V9.25H37.875L44.4375 15.8125V21.0625H43.125V16.3867L37.3008 10.5625ZM49.6875 26.3125H10.3125V42.0625H15.5625V36.8125H44.4375V42.0625H49.6875V26.3125ZM44.4375 43.375V51.25H15.5625V43.375H9V25H51V43.375H44.4375ZM43.125 49.9375V38.125H16.875V49.9375H43.125ZM44.7656 32.2188C44.1914 32.2188 43.7812 31.8086 43.7812 31.2344C43.7812 30.6602 44.1914 30.25 44.7656 30.25C45.3398 30.25 45.75 30.6602 45.75 31.2344C45.75 31.8086 45.3398 32.2188 44.7656 32.2188Z" fill="#222222"/>
</svg>
