<svg width="60" height="60" viewBox="0 0 60 60" fill="none" xmlns="http://www.w3.org/2000/svg">
<path d="M21.4688 9.00391L21.9609 9.41406L29.5898 17.125H30.4102L38.1211 9.41406L38.5312 9.00391L39.5156 9.90625L39.0234 10.3984L32.2969 17.125H51V48.625H9V17.125H27.7852L21.0586 10.3984L20.5664 9.90625L21.4688 9.00391ZM30.6562 18.4375H10.3125V47.3125H49.6875V18.4375H30.6562ZM44.7656 27.625C45.3398 27.625 45.75 27.2148 45.75 26.6406C45.75 26.0664 45.3398 25.6562 44.7656 25.6562C44.1914 25.6562 43.7812 26.0664 43.7812 26.6406C43.7812 27.2148 44.1914 27.625 44.7656 27.625ZM44.7656 24.3438C45.9961 24.3438 47.0625 25.4102 47.0625 26.6406C47.0625 27.8711 45.9961 28.9375 44.7656 28.9375C43.5352 28.9375 42.4688 27.8711 42.4688 26.6406C42.4688 25.4102 43.5352 24.3438 44.7656 24.3438ZM44.7656 34.1875C45.3398 34.1875 45.75 33.7773 45.75 33.2031C45.75 32.6289 45.3398 32.2188 44.7656 32.2188C44.1914 32.2188 43.7812 32.6289 43.7812 33.2031C43.7812 33.7773 44.1914 34.1875 44.7656 34.1875ZM44.7656 30.9062C45.9961 30.9062 47.0625 31.9727 47.0625 33.2031C47.0625 34.4336 45.9961 35.5 44.7656 35.5C43.5352 35.5 42.4688 34.4336 42.4688 33.2031C42.4688 31.9727 43.5352 30.9062 44.7656 30.9062ZM15.5625 23.6875V42.0625H39.1875V23.6875H15.5625ZM14.25 22.375H40.5V43.375H14.25V22.375Z" fill="#222222"/>
</svg>
