<svg width="60" height="60" viewBox="0 0 60 60" fill="none" xmlns="http://www.w3.org/2000/svg">
<path d="M32.625 9.25H38.5312C42.5508 9.25 45.75 12.4492 45.75 16.4688C45.75 20.4883 42.5508 23.6875 38.5312 23.6875H9V22.375H38.5312C41.8125 22.375 44.4375 19.75 44.4375 16.4688C44.4375 13.1875 41.8125 10.5625 38.5312 10.5625H32.625V9.25ZM37.875 43.375V42.0625H44.1094C47.2266 42.0625 49.6875 39.6016 49.6875 36.4844C49.6875 33.3672 47.2266 30.9062 44.1094 30.9062H9V29.5938H44.1094C47.8828 29.5938 51 32.7109 51 36.4844C51 40.2578 47.8828 43.375 44.1094 43.375H37.875ZM17.5312 51.25H16.875V49.9375H22.7812C26.0625 49.9375 28.6875 47.3125 28.6875 44.0312C28.6875 40.75 26.0625 38.125 22.7812 38.125H9V36.8125H22.7812C26.8008 36.8125 30 40.0117 30 44.0312C30 48.0508 26.8008 51.25 22.7812 51.25H17.5312Z" fill="#222222"/>
</svg>
