<svg width="32" height="32" viewBox="0 0 32 32" fill="none" xmlns="http://www.w3.org/2000/svg">
<rect width="32" height="32" rx="16" fill="#FFE812"/>
<path d="M16 7.375C10.6152 7.375 6.25 10.8168 6.25 15.0625C6.25 17.8074 8.07494 20.2159 10.8201 21.576C10.6708 22.091 9.86041 24.8895 9.82816 25.1093C9.82816 25.1093 9.80875 25.2745 9.91572 25.3375C10.0227 25.4005 10.1485 25.3516 10.1485 25.3516C10.4552 25.3087 13.7057 23.0255 14.2682 22.6291C14.8303 22.7087 15.409 22.75 16 22.75C21.3848 22.75 25.75 19.3082 25.75 15.0625C25.75 10.8168 21.3848 7.375 16 7.375Z" fill="black"/>
<path d="M10.6094 17.7461C10.2992 17.7461 10.0469 17.5052 10.0469 17.2089V13.8672H9.16919C8.86478 13.8672 8.61719 13.6201 8.61719 13.3164C8.61719 13.0128 8.86488 12.7656 9.16919 12.7656H12.0496C12.354 12.7656 12.6016 13.0128 12.6016 13.3164C12.6016 13.6201 12.3539 13.8672 12.0496 13.8672H11.1719V17.2089C11.1719 17.5052 10.9196 17.7461 10.6094 17.7461ZM15.5417 17.7388C15.3072 17.7388 15.1278 17.6435 15.0737 17.4903L14.7951 16.7612L13.0799 16.7611L12.8012 17.4907C12.7472 17.6436 12.5679 17.7388 12.3333 17.7388C12.21 17.7389 12.088 17.7124 11.9758 17.6612C11.8207 17.5896 11.6717 17.3929 11.8425 16.8624L13.188 13.3209C13.2827 13.0516 13.5707 12.7741 13.937 12.7657C14.3044 12.774 14.5923 13.0516 14.6873 13.3215L16.0322 16.8614C16.2034 17.3931 16.0544 17.5899 15.8993 17.6613C15.7871 17.7124 15.6651 17.7389 15.5417 17.7388ZM14.4993 15.7648L13.9375 14.1687L13.3757 15.7648H14.4993ZM16.9375 17.6641C16.6402 17.6641 16.3984 17.4327 16.3984 17.1484V13.3281C16.3984 13.0179 16.6561 12.7656 16.9727 12.7656C17.2893 12.7656 17.5469 13.0179 17.5469 13.3281V16.6328H18.7422C19.0395 16.6328 19.2812 16.8642 19.2812 17.1484C19.2812 17.4327 19.0395 17.6641 18.7422 17.6641H16.9375ZM20.0626 17.7388C19.7523 17.7388 19.5001 17.4865 19.5001 17.1763V13.3281C19.5001 13.0179 19.7523 12.7656 20.0626 12.7656C20.3728 12.7656 20.6251 13.0179 20.6251 13.3281V14.5371L22.1944 12.9677C22.2752 12.887 22.3861 12.8426 22.5064 12.8426C22.6469 12.8426 22.7879 12.9032 22.8935 13.0087C22.9921 13.1072 23.0508 13.2338 23.0589 13.3653C23.0671 13.498 23.0229 13.6196 22.9348 13.7078L21.6529 14.9895L23.0375 16.8238C23.0822 16.8826 23.1148 16.9498 23.1333 17.0213C23.1519 17.0928 23.156 17.1673 23.1455 17.2405C23.1355 17.3137 23.111 17.3842 23.0736 17.4479C23.0361 17.5115 22.9864 17.5671 22.9273 17.6115C22.83 17.6854 22.7111 17.7253 22.5889 17.725C22.5018 17.7254 22.4157 17.7054 22.3377 17.6666C22.2597 17.6277 22.1918 17.5712 22.1396 17.5014L20.8204 15.7535L20.6252 15.9487V17.176C20.6251 17.3252 20.5657 17.4682 20.4603 17.5737C20.3548 17.6792 20.2118 17.7386 20.0626 17.7388Z" fill="#FFE812"/>
</svg>
